<svg width="20" height="18" viewBox="0 0 20 18" xmlns="http://www.w3.org/2000/svg"><g fill="none" fill-rule="evenodd"><path d="M0-1h20v20H0z"/><g fill-rule="nonzero" fill="currentColor"><path d="M4.583 5.833H.417A.417.417 0 0 0 0 6.25v2.5c0 .902.28 1.442.833 1.61v3.39c0 .23.187.417.417.417h2.5c.23 0 .417-.187.417-.417v-3.39c.552-.168.831-.707.833-1.61v-2.5a.417.417 0 0 0-.417-.417zm15 0h-4.166A.417.417 0 0 0 15 6.25v2.5c0 .902.28 1.442.833 1.61v3.39c0 .23.187.417.417.417h2.5c.23 0 .417-.187.417-.417v-3.39c.552-.168.832-.707.833-1.61v-2.5a.417.417 0 0 0-.417-.417zm-6.666 0H7.083a.417.417 0 0 0-.416.417v4.167c0 1.006.716 1.847 1.666 2.041v4.625c0 .23.187.417.417.417h2.5c.23 0 .417-.187.417-.417v-4.625a2.086 2.086 0 0 0 1.666-2.041V6.25a.417.417 0 0 0-.416-.417z"/><circle cx="2.5" cy="3.333" r="1.667"/><circle cx="17.5" cy="3.333" r="1.667"/><circle cx="10" cy="2.5" r="2.5"/></g></g></svg>