<svg width="20" height="19" viewBox="0 0 20 19" xmlns="http://www.w3.org/2000/svg"><g fill="none" fill-rule="evenodd"><path d="M0 0h20v20H0z"/><path d="M3.546 9.52c-.03.324-.046-.349-.046-.02V12c0 1.386-1.62 4.5-3 4.5h19c-1.383 0-3-3.114-3-4.5V9.5c0-.39.043-1.118 0-1.5m-3.208-5.127A5.299 5.299 0 0 0 12.5 2.5c-.184-1.203-1.167-2-2.417-2-1.25 0-2.399.797-2.583 2a5.29 5.29 0 0 0-1.529.885M12.5 16.5c0 1.386-1.12 2-2.5 2-1.383 0-2.5-.614-2.5-2" stroke="currentColor" stroke-linecap="round" stroke-linejoin="round"/><path stroke="currentColor" stroke-linecap="round" stroke-linejoin="round" d="M2 4.5h3l-2.5 3H5m9-4h4l-4 3h4m-11 1h5l-5 4h5"/></g></svg>