<svg width="32" height="32" viewBox="0 0 32 32" xmlns="http://www.w3.org/2000/svg"><path d="M2 4.608c0-1.28 1.355-2.368 4.064-3.264C8.774.448 12.037 0 15.854 0c3.84 0 7.11.448 9.808 1.344 2.7.896 4.048 1.984 4.048 3.264 0 .256-.768 4.95-2.304 14.08-.192.98-1.376 1.93-3.552 2.846-2.175.918-4.842 1.376-8 1.376-3.156 0-5.823-.458-7.998-1.376-2.176-.917-3.35-1.866-3.52-2.847C2.78 9.855 2 5.162 2 4.607zm3.424 18.59v-.128c0-.362.16-.544.48-.544a.6.6 0 0 1 .384.16c1.002.79 2.304 1.408 3.903 1.856 1.6.448 2.945.694 4.033.736l1.632.096c.17 0 .4-.005.688-.016.288-.01.848-.064 1.68-.16s1.626-.23 2.384-.4a17.2 17.2 0 0 0 2.51-.8c.92-.362 1.697-.8 2.337-1.312l.352-.16c.342 0 .512.182.512.544 0 .043-.01.086-.032.128-.47 2.58-.79 4.3-.96 5.152-.234 1.045-1.258 1.914-3.07 2.608-1.815.693-3.948 1.04-6.4 1.04-2.454 0-4.587-.347-6.4-1.04-1.814-.694-2.827-1.563-3.04-2.608a306.728 306.728 0 0 1-.992-5.152zm1.568-19.07c0 .512.87.954 2.607 1.328 1.738.373 3.823.56 6.255.56 2.453 0 4.55-.182 6.288-.544 1.738-.363 2.607-.8 2.607-1.312 0-.534-.87-.987-2.607-1.36-1.74-.374-3.835-.56-6.288-.56-2.453 0-4.544.18-6.272.544-1.727.362-2.59.81-2.59 1.344zm4.447 11.295c0 1.216.43 2.256 1.295 3.12.864.864 1.904 1.296 3.12 1.296 1.216 0 2.256-.433 3.12-1.297.864-.864 1.296-1.904 1.296-3.12 0-1.216-.43-2.256-1.295-3.12-.864-.864-1.904-1.296-3.12-1.296-1.216 0-2.256.432-3.12 1.296-.864.864-1.296 1.904-1.296 3.12zm2.207 0c0 .597.213 1.114.64 1.552.427.437.95.656 1.568.656.62 0 1.14-.218 1.568-.655.427-.438.64-.955.64-1.552 0-.597-.213-1.115-.64-1.552a2.106 2.106 0 0 0-1.568-.655c-.62 0-1.14.22-1.568.656a2.15 2.15 0 0 0-.64 1.553z" fill="#036" fill-rule="evenodd"/></svg>