<svg width="16" height="16" viewBox="0 0 16 16" fill="none" xmlns="http://www.w3.org/2000/svg"><path d="M3.208 6.917c.32.625.688 1.222 1.105 1.791a13.736 13.736 0 0 0 2.979 2.98c.57.416 1.166.784 1.791 1.104l1.959-1.959a.854.854 0 0 1 .437-.24.862.862 0 0 1 .48.032c.5.167 1.017.292 1.551.375.535.083 1.073.125 1.615.125.25 0 .458.083.625.25.167.167.25.375.25.625v3.125c0 .25-.083.458-.25.625a.848.848 0 0 1-.625.25c-2.083 0-4.042-.396-5.875-1.188a15.329 15.329 0 0 1-4.812-3.25 15.33 15.33 0 0 1-3.25-4.812C.396 4.917 0 2.958 0 .875 0 .625.083.417.25.25A.848.848 0 0 1 .875 0H4c.25 0 .458.083.625.25.167.167.25.375.25.625 0 .556.042 1.097.125 1.625a9.53 9.53 0 0 0 .375 1.542c.042.139.049.295.02.468a.797.797 0 0 1-.228.448L3.208 6.917z"/></svg>