<svg width="22" height="9" viewBox="0 0 22 9" fill="none" xmlns="http://www.w3.org/2000/svg"><path d="M11 2.333c-.708 0-1.403.052-2.083.157-.68.104-1.348.26-2 .468v2.75c0 .167-.045.33-.136.49a.79.79 0 0 1-.364.344 9.694 9.694 0 0 0-2.375 1.625.832.832 0 0 1-.282.187.918.918 0 0 1-.343.063.918.918 0 0 1-.344-.063.832.832 0 0 1-.281-.187L.583 5.958a.832.832 0 0 1-.187-.28.918.918 0 0 1-.063-.345c0-.125.021-.24.063-.343a.833.833 0 0 1 .187-.282 16.983 16.983 0 0 1 2.209-1.75 14.735 14.735 0 0 1 2.5-1.302 15.557 15.557 0 0 1 2.75-.823A14.841 14.841 0 0 1 11 .542c1.014 0 2 .097 2.958.291.959.195 1.875.47 2.75.823a14.913 14.913 0 0 1 4.708 3.052.834.834 0 0 1 .25.625.833.833 0 0 1-.25.625l-2.208 2.209a.833.833 0 0 1-.28.187.918.918 0 0 1-.345.063.917.917 0 0 1-.343-.063.833.833 0 0 1-.282-.187 8.697 8.697 0 0 0-1.114-.907 8.962 8.962 0 0 0-1.26-.718.789.789 0 0 1-.355-.292.85.85 0 0 1-.146-.5V3a14.113 14.113 0 0 0-1.99-.49A12.348 12.348 0 0 0 11 2.333z"/></svg>