<svg xmlns="http://www.w3.org/2000/svg" width="612" height="612" viewBox="0 0 612 612"><path d="M421.267 173.425c-9.142-5.278-20.847-2.142-26.125 7L272.837 392.272l-68.429-63.112c-7.229-7.707-19.316-8.108-27.024-.88-7.707 7.229-8.109 19.316-.879 27.043l87.439 80.65c7.229 7.707 19.316 8.108 27.023.88 2.333-2.181 137.317-237.284 137.317-237.284 5.261-9.16 2.124-20.865-7.017-26.144zM306 0C136.992 0 0 136.992 0 306s136.992 306 306 306 306-136.992 306-306S475.008 0 306 0zm0 573.75C158.125 573.75 38.25 453.875 38.25 306S158.125 38.25 306 38.25 573.75 158.125 573.75 306 453.875 573.75 306 573.75z"/></svg>