<svg width="24" height="24" viewBox="0 0 24 24" xmlns="http://www.w3.org/2000/svg"><g fill="none" fill-rule="evenodd"><g stroke-linecap="round" stroke="currentColor" stroke-linejoin="round"><path d="M20.254 13.5H22.5a1 1 0 0 0 1-1v-1a1 1 0 0 0-1-1h-2.247c-.209-.867-.551-2.181-1.003-2.922l1.589-1.588a1 1 0 0 0 0-1.414L19.424 3.16a1 1 0 0 0-1.414 0l-1.59 1.59c-.74-.452-2.053-.793-2.92-1.002V1.5a1 1 0 0 0-1-1h-1a1 1 0 0 0-1 1v2.248c-.867.209-2.181.55-2.921 1.002l-1.59-1.589a1 1 0 0 0-1.414 0L3.16 4.576a1 1 0 0 0 0 1.414l1.59 1.59c-.452.74-.794 2.054-1.004 2.921H1.5a1 1 0 0 0-1 1v1a1 1 0 0 0 1 1h2.246c.21.867.552 2.181 1.004 2.921l-1.59 1.59a1 1 0 0 0 0 1.414l1.415 1.414a1 1 0 0 0 1.414 0l1.589-1.59c.741.454 2.055.795 2.922 1.005V22.5a1 1 0 0 0 1 1h1a1 1 0 0 0 1-1v-2.246c.867-.21 2.181-.552 2.92-1.004l1.59 1.59v-.001a1 1 0 0 0 1.415 0l1.414-1.414a1 1 0 0 0 0-1.414l-1.589-1.59c.452-.74.794-2.054 1.004-2.921z"/><circle cx="12" cy="12" r="4.5"/></g><path d="M0 0h24v24H0z"/></g></svg>