<svg width="24" height="24" viewBox="0 0 24 24" fill="none" xmlns="http://www.w3.org/2000/svg">
<path fill-rule="evenodd" clip-rule="evenodd" d="M12 5.27956C14.1123 5.27956 15.8404 7.0076 15.8404 9.11995C15.8404 10.56 15.0232 11.8074 13.8711 12.4797L15.8395 18.2399H8.15958L10.1756 12.4797C8.97591 11.856 8.15958 10.56 8.15958 9.11995C8.15958 7.0076 9.88763 5.27956 12 5.27956ZM9.50422 17.2805H14.4966L14.4975 17.2796L12.9135 12.7677L12.6732 12L13.3932 11.6157C14.3049 11.136 14.881 10.1757 14.881 9.11995C14.881 7.53591 13.5849 6.23988 12.0009 6.23988C10.4168 6.23988 9.12081 7.53591 9.12081 9.11995C9.12081 10.1766 9.69682 11.136 10.6085 11.6643L11.3286 12.0486L11.0406 12.8163L9.50422 17.2805Z" fill="black"/>
<path fill-rule="evenodd" clip-rule="evenodd" d="M0 12C0 5.37583 5.37583 0 12 0C18.6242 0 24 5.37583 24 12C24 18.6242 18.6242 24 12 24C5.37583 24 0 18.6242 0 12ZM0.959424 12C0.959424 18.0968 5.90415 23.0406 12 23.0406C18.0968 23.0406 23.0406 18.0968 23.0406 12C23.0406 5.90325 18.0959 0.959424 12 0.959424C5.90325 0.959424 0.959424 5.90325 0.959424 12Z" fill="black"/>
</svg>
