<svg width="12" height="9" viewBox="0 0 12 9" xmlns="http://www.w3.org/2000/svg"><g fill="none" fill-rule="evenodd"><path d="M0-1h12v12H0z"/><path d="M11 0H1C.449 0 0 .471 0 1.05v6.9C0 8.53.449 9 1 9h10c.552 0 1-.47 1-1.05v-6.9C12 .471 11.552 0 11 0zM3.454 6.174l-2.022.8c-.138.055-.314.02-.394-.075-.079-.096-.031-.218.108-.273l2.022-.8c.138-.055.314-.02.394.075.079.096.031.219-.108.273zm2.42-.218L1.906 2.909c-.108-.083-.14-.255-.07-.382.07-.128.215-.166.323-.082L6 5.394l3.84-2.95c.108-.083.253-.046.323.082s.038.3-.07.383L6.128 5.955a.204.204 0 0 1-.254.001zm5.088.943c-.08.096-.256.13-.394.074l-2.022-.8c-.14-.054-.187-.176-.108-.272.08-.096.256-.13.394-.074l2.022.8c.14.054.187.176.108.272z" fill="currentColor" fill-rule="nonzero"/></g></svg>