<svg width="32" height="32" viewBox="0 0 32 32" xmlns="http://www.w3.org/2000/svg"><path d="M29.264 5.567c-.24-1.277-1.007-1.906-1.7-2.153-.746-.268-2.26-.545-4.163-.768-1.53-.18-3.33-.164-4.416-.13-.13-.887-.757-1.696-1.458-1.976-1.868-.745-4.755-.566-5.497-.36-.59.163-1.24.498-1.604 1.013-.244.345-.4.786-.402 1.402 0 .35.01 1.17.02 1.9l.017 1.392A1.19 1.19 0 0 1 8.87 7.07H5.84c-.646 0-1.14.108-1.516.278-.378.17-.645.4-.85.67C3.07 8.56 3 9.223 3 9.9c0 0 .006.554.14 1.627.113.83 1.02 6.628 1.883 8.392.334.685.557.97 1.214 1.273 1.463.62 4.806 1.312 6.372 1.51 1.563.2 2.545.616 3.13-.6 0-.003.117-.303.275-.743.508-1.525.58-2.88.58-3.86 0-.098.146-.103.146 0 0 .693-.132 3.14 1.732 3.797.736.26 2.263.49 3.815.67 1.403.16 2.42.708 2.42 4.277 0 2.17-.46 2.47-2.864 2.47-1.95 0-2.692.05-2.692-1.487 0-1.24 1.24-1.11 2.157-1.11.41 0 .112-.302.112-1.068 0-.763.48-1.203.025-1.214-3.173-.087-5.04-.004-5.04 3.93 0 3.57 1.38 4.234 5.882 4.234 3.53 0 4.774-.114 6.232-4.6.288-.884.985-3.586 1.407-8.122.267-2.87-.252-11.526-.663-13.71zm-6.154 9.57a6.5 6.5 0 0 0-1.246.074c.11-.88.477-1.963 1.777-1.918 1.44.05 1.642 1.398 1.647 2.312-.607-.27-1.36-.44-2.177-.468zM5.697 6.196h3.029c.174 0 .314-.14.314-.31 0-.002-.036-2.576-.036-3.29v-.01c0-.588.124-1.1.34-1.53L9.45.864a.067.067 0 0 0-.034.02L3.53 6.67a.067.067 0 0 0-.023.034c.12-.06.288-.14.312-.15.51-.23 1.133-.357 1.877-.357z" fill-rule="evenodd"/></svg>