<svg width="60" height="60" viewBox="0 0 60 60" xmlns="http://www.w3.org/2000/svg"><path d="M16.784 52.059h-.001c-.91 0-1.783-.35-2.393-.96l-3.539-3.54c-1.128-1.127-1.286-3.027-.359-4.325l14.846-20.785-6-6.001a.997.997 0 0 1-.232-1.049.997.997 0 0 1 .853-.654l28.638-2.474a.996.996 0 0 1 1.082 1.082L47.204 41.99a1 1 0 0 1-1.703.621l-6-6-20.787 14.847a3.296 3.296 0 0 1-1.93.601zm5.487-35.506l5.081 5.081a1 1 0 0 1 .106 1.288L12.12 44.397c-.356.498-.288 1.314.145 1.748l3.539 3.54c.235.234.601.374.98.374.289 0 .562-.081.768-.229l21.475-15.339a1 1 0 0 1 1.288.107l5.082 5.081 2.188-25.314-25.314 2.188z" fill="currentColor" fill-rule="evenodd"/></svg>