<svg width="32" height="32" viewBox="0 0 32 32" xmlns="http://www.w3.org/2000/svg"><defs><filter x="-50%" y="-50%" width="200%" height="200%" filterUnits="objectBoundingBox" id="a"><feOffset dy="-1" in="SourceAlpha" result="shadowOffsetInner1"/><feGaussianBlur in="shadowOffsetInner1" result="shadowBlurInner1"/><feComposite in="shadowBlurInner1" in2="SourceAlpha" operator="arithmetic" k2="-1" k3="1" result="shadowInnerInner1"/><feColorMatrix values="0 0 0 0 1 0 0 0 0 1 0 0 0 0 1 0 0 0 0.07 0" in="shadowInnerInner1" result="shadowMatrixInner1"/><feMerge><feMergeNode in="SourceGraphic"/><feMergeNode in="shadowMatrixInner1"/></feMerge></filter><linearGradient x1="50%" y1="0%" x2="50%" y2="100%" id="b"><stop stop-color="#4A8AF6" offset="0%"/><stop stop-color="#4578DE" offset="100%"/></linearGradient><filter x="-50%" y="-50%" width="200%" height="200%" filterUnits="objectBoundingBox" id="c"><feOffset dy="1" in="SourceAlpha" result="shadowOffsetOuter1"/><feGaussianBlur stdDeviation="1.5" in="shadowOffsetOuter1" result="shadowBlurOuter1"/><feColorMatrix values="0 0 0 0 0 0 0 0 0 0 0 0 0 0 0 0 0 0 0.175 0" in="shadowBlurOuter1" result="shadowMatrixOuter1"/><feMerge><feMergeNode in="shadowMatrixOuter1"/><feMergeNode in="SourceGraphic"/></feMerge></filter><filter x="-50%" y="-50%" width="200%" height="200%" filterUnits="objectBoundingBox" id="d"><feOffset dy="1" in="SourceAlpha" result="shadowOffsetOuter1"/><feGaussianBlur stdDeviation="1.5" in="shadowOffsetOuter1" result="shadowBlurOuter1"/><feColorMatrix values="0 0 0 0 0 0 0 0 0 0 0 0 0 0 0 0 0 0 0.175 0" in="shadowBlurOuter1" result="shadowMatrixOuter1"/><feMerge><feMergeNode in="shadowMatrixOuter1"/><feMergeNode in="SourceGraphic"/></feMerge></filter></defs><g fill="none" fill-rule="evenodd"><rect fill="#D8D8D8" x="1.655" width="28.828" height="9.379" rx="18"/><path d="M.68 11.526C.154 7.75 2.817 4.69 6.63 4.69h18.744c3.813 0 6.506 3.06 6.015 6.836l-.904 6.957H1.655L.68 11.526z" fill="#3B69D0" filter="url(#a)"/><path d="M1.17 25.26C.906 28.984 3.725 32 7.456 32h16.952c3.737 0 6.612-3.017 6.42-6.76l-.344-6.757H1.655L1.17 25.26z" fill="#4C8DF9"/><path d="M15.31 18.483h9.112c3.728 0 6.597 3.016 6.406 6.758L30.483 32H1.655L15.31 18.483z" fill="url(#b)" transform="matrix(1 0 0 -1 0 50.483)"/><path d="M9.65 17.556h1.282c.806-.012 1.44-.225 1.9-.637.462-.413.693-.97.693-1.67 0-1.576-.784-2.363-2.353-2.363-.738 0-1.327.21-1.767.632-.44.42-.66.98-.66 1.674H7.038c0-1.064.39-1.95 1.168-2.653.778-.703 1.767-1.055 2.966-1.055 1.267 0 2.26.335 2.98 1.005.72.67 1.08 1.603 1.08 2.796 0 .584-.19 1.15-.568 1.698a3.426 3.426 0 0 1-1.545 1.227c.737.235 1.308.622 1.71 1.164.403.54.605 1.202.605 1.983 0 1.206-.394 2.163-1.18 2.87-.788.707-1.813 1.06-3.074 1.06-1.26 0-2.285-.34-3.076-1.023-.79-.683-1.185-1.584-1.185-2.704h1.715c0 .708.23 1.274.692 1.698.46.425 1.08.637 1.854.637.826 0 1.456-.216 1.893-.646.437-.432.655-1.05.655-1.856 0-.78-.24-1.38-.72-1.8-.48-.417-1.172-.633-2.076-.645H9.65v-1.394zm13.104 7.547h-1.716V13.727l-3.442 1.264v-1.55l4.89-1.835h.268v13.498z" fill="#FFF"/><circle fill="#FFF" filter="url(#c)" cx="9.172" cy="2.276" r="1.172"/><circle fill="#FFF" filter="url(#d)" cx="22.828" cy="2.276" r="1.172"/><path d="M13.484 18.345a4.24 4.24 0 0 0-.365-.134 3.426 3.426 0 0 0 1.544-1.226c.38-.548.568-1.114.568-1.698 0-1.193-.36-2.125-1.08-2.796-.72-.67-1.713-1.005-2.98-1.005-1.2 0-2.188.352-2.966 1.056-.778.705-1.168 1.59-1.168 2.654h1.707c0-.695.22-1.253.66-1.675.44-.422 1.03-.633 1.767-.633 1.57 0 2.353.787 2.353 2.362 0 .7-.23 1.257-.692 1.67-.46.41-1.095.624-1.9.636H9.65v.79h3.834zm7.554 0v-4.618l-3.442 1.264v-1.55l4.89-1.835h.268v6.74h-1.716z" opacity=".3" fill="#3866CF"/></g></svg>