<svg width="32" height="32" viewBox="0 0 32 32" xmlns="http://www.w3.org/2000/svg"><path d="M12.035 31.18c0-.388-.014-1.42-.02-2.79-4.452.992-5.39-2.2-5.39-2.2-.73-1.894-1.778-2.4-1.778-2.4-1.452-1.017.11-.996.11-.996 1.606.116 2.45 1.69 2.45 1.69 1.428 2.508 3.745 1.785 4.658 1.365.145-1.062.56-1.785 1.015-2.195-3.552-.414-7.288-1.822-7.288-8.108 0-1.79.624-3.255 1.647-4.402-.165-.415-.715-2.083.157-4.342 0 0 1.343-.44 4.4 1.682A14.972 14.972 0 0 1 16 7.932c1.36.006 2.727.19 4.006.553 3.054-2.123 4.395-1.682 4.395-1.682.874 2.258.325 3.926.16 4.342 1.025 1.147 1.644 2.61 1.644 4.402 0 6.302-3.74 7.69-7.306 8.095.577.507 1.087 1.508 1.087 3.04 0 2.192-.02 3.962-.02 4.5 0 .438.29.948 1.1.788C27.42 29.797 32 23.65 32 16.406 32 7.346 24.836 0 16 0S0 7.345 0 16.406c0 7.247 4.585 13.397 10.943 15.566.8.15 1.092-.357 1.092-.79z" fill-rule="evenodd"/></svg>