<svg width="32" height="32" viewBox="0 0 32 32" xmlns="http://www.w3.org/2000/svg"><defs><linearGradient x1="50%" y1="0%" x2="50%" y2="78.332%" id="a"><stop stop-color="#00C4FF" offset="0%"/><stop stop-color="#007FFF" offset="100%"/></linearGradient></defs><path d="M12.987 8.22c-.74.05-2.046-.107-3.64-1.356C6.83 4.896 7.1 2.874 7.158 2.544c.056-.322 2.41-.794 4.86 1.013-.384.96-.39 1.85-.302 2.492.07-1.17.58-2.678 2.34-4.032 3.517-2.707 6.96-2.05 7.038-1.6.08.45.448 3.22-3.068 5.926-2.2 1.694-4 1.934-5.04 1.875zm4.615 9.527a5.752 5.752 0 0 0 3.65 1.797c.35.6.552 1.298.552 2.044 0 2.23-1.793 4.038-4.005 4.038-2.213 0-4.006-1.808-4.006-4.038 0-.774.217-1.497.59-2.11a5.715 5.715 0 0 0 1.735-.62 5.808 5.808 0 0 0 1.482-1.11zm.642-7.336a4.866 4.866 0 0 1 3.665-1.663c2.702 0 4.894 2.21 4.894 4.935 0 2.725-2.192 4.934-4.895 4.934a4.866 4.866 0 0 1-3.666-1.663c.257-.38.47-.794.632-1.233a3.503 3.503 0 0 0 3.04 1.775c1.55 0 2.864-1.016 3.33-2.426a4.357 4.357 0 0 1-3.32 1.536 4.345 4.345 0 0 1-2.956-1.16c.175-.556.27-1.15.27-1.764a5.838 5.838 0 0 0-.996-3.27zM8.56 16.954a4.866 4.866 0 0 1-3.665 1.663C2.19 18.616 0 16.406 0 13.682c0-2.725 2.19-4.935 4.895-4.935a4.87 4.87 0 0 1 3.665 1.664 5.838 5.838 0 0 0-.995 3.272c0 .624.097 1.225.277 1.79a4.343 4.343 0 0 1-2.93 1.134 4.36 4.36 0 0 1-3.355-1.578c.455 1.43 1.78 2.467 3.345 2.467a3.502 3.502 0 0 0 3.03-1.76c.163.433.374.84.628 1.218zm3.753 2.524c.375.614.59 1.337.59 2.11 0 2.23-1.792 4.04-4.003 4.04-2.212 0-4.005-1.81-4.005-4.04 0-.745.2-1.444.55-2.043a5.753 5.753 0 0 0 3.677-1.825 5.762 5.762 0 0 0 3.19 1.757zm4.874 7.136c.11.367.167.756.167 1.16 0 2.23-1.793 4.037-4.005 4.037-2.212 0-4.005-1.808-4.005-4.038 0-.403.058-.792.167-1.16a4.903 4.903 0 0 0 3.837-2.837 4.903 4.903 0 0 0 3.837 2.838zm-6.57 2.244c.363 1.17 1.424 2.02 2.675 2.02 1.24 0 2.292-.832 2.665-1.986a3.455 3.455 0 0 1-2.656 1.26 3.457 3.457 0 0 1-2.683-1.293zM6.23 22.71c.363 1.17 1.423 2.02 2.675 2.02 1.24 0 2.29-.833 2.664-1.986A3.455 3.455 0 0 1 8.913 24a3.457 3.457 0 0 1-2.684-1.29zm8.9 0c.363 1.17 1.423 2.02 2.675 2.02 1.24 0 2.29-.833 2.664-1.986A3.455 3.455 0 0 1 17.812 24a3.457 3.457 0 0 1-2.684-1.29zm-1.78-4.094c2.703 0 4.894-2.21 4.894-4.934 0-2.725-2.19-4.935-4.895-4.935-2.704 0-4.895 2.21-4.895 4.935 0 2.725 2.19 4.934 4.894 4.934zm-3.338-3.588c.454 1.43 1.78 2.467 3.344 2.467 1.55 0 2.864-1.016 3.33-2.426a4.357 4.357 0 0 1-3.32 1.536 4.36 4.36 0 0 1-3.354-1.578z" transform="translate(3)" fill="url(#a)" fill-rule="evenodd"/></svg>