<svg width="20" height="20" viewBox="0 0 20 20" xmlns="http://www.w3.org/2000/svg"><g fill="none" fill-rule="evenodd"><path d="M0 0h20v20H0z"/><g stroke="currentColor" stroke-linejoin="round"><path d="M10 19.5a9.5 9.5 0 0 0 0-19C4.753.5.5 4.253.5 9.5s4.253 10 9.5 10z" stroke-linecap="round"/><path d="M7.022 7.435c0-.118.008-.233.024-.346C7.214 5.884 8.249 4.5 9.5 4.5c1.368 0 3 1.632 3 3 0 1.37-1.632 2.5-3 2.5v2" stroke-linecap="round"/><path d="M10 14.5c0 .228-.272.37-.5.37a.413.413 0 1 1 .413-.413L10 14.5z"/></g></g></svg>