<svg width="20" height="20" viewBox="0 0 20 20" xmlns="http://www.w3.org/2000/svg"><g fill="none" fill-rule="evenodd"><path d="M12.083 10.417l.072.071c.65.651 1.706.651 2.357 0l3.304-3.303a2.509 2.509 0 0 0 0-3.536L16.35 2.185a2.506 2.506 0 0 0-3.535 0L9.512 5.488a1.668 1.668 0 0 0 0 2.358l.071.07M7.917 9.583l-.072-.07a1.666 1.666 0 0 0-2.357 0l-3.304 3.303a2.509 2.509 0 0 0 0 3.536l1.465 1.464a2.506 2.506 0 0 0 3.535 0l3.304-3.304a1.666 1.666 0 0 0 0-2.357l-.071-.072M6.76 13.24l6.48-6.48" stroke-linecap="round" stroke="currentColor" stroke-linejoin="round"/><path d="M0 0h20v20H0z"/></g></svg>