<svg width="20" height="18" viewBox="0 0 20 18" xmlns="http://www.w3.org/2000/svg"><g fill="none" fill-rule="evenodd"><path d="M0-1h20v20H0z"/><g stroke-linejoin="round" stroke="currentColor"><path d="M12 3.5h7.5v14H.5v-14H8"/><path d="M6 13c.92 0 1.5-.996 1.5-1.917 0-.92-.58-1.666-1.5-1.666s-1.833.746-1.833 1.666C4.167 12.003 5.08 13 6 13z"/><path d="M6 12.5c-2.083 0-3.5 1.75-3.5 3h7c0-1.25-1.417-3-3.5-3zm6.5-7h-5V1.917C7.5.77 8.854.5 10 .5s2.5.27 2.5 1.417V5.5zM.417 7.5h19.166M11.5 14.417l6 .083m-6-2h6m-6-2h3"/><path d="M10 3.33a.417.417 0 1 1 0-.834.417.417 0 0 1 0 .833z"/></g></g></svg>