<svg width="28" height="32" viewBox="0 0 28 32" xmlns="http://www.w3.org/2000/svg"><g fill="none" fill-rule="evenodd"><path d="M21 0H3.997A4.004 4.004 0 0 0 0 4.004v23.992A3.998 3.998 0 0 0 3.997 32h20.006A4.004 4.004 0 0 0 28 27.996V9h-7V0z" stroke="#C3CAD2" fill="#FFF"/><path d="M21 0l7 9h-7V0z" fill="#C3CAD2"/><circle fill="#F6A623" cx="10.104" cy="11.75" r="3.048"/><path d="M19.002 13.3c-.536-.96-1.453-.982-2.037-.05l-2.87 4.588c-.585.933-1.748 1.23-2.586.658-.84-.57-2.11-.352-2.82.486l-2.86 3.37c-.71.84-.4 1.526.7 1.526h16.38c1.1 0 1.56-.785 1.02-1.746L19 13.302z" fill="#9BA0A9"/></g></svg>