<svg width="32" height="32" viewBox="0 0 32 32" xmlns="http://www.w3.org/2000/svg"><g fill="none" fill-rule="evenodd"><path d="M19.135 27.023c0 1.61-.27 2.803-.81 3.575-.53.772-1.356 1.158-2.47 1.158-1.127 0-1.966-.39-2.515-1.167-.55-.78-.824-1.97-.824-3.568v-13.07c0-1.598.27-2.782.814-3.553.544-.773 1.383-1.16 2.526-1.16 1.113 0 1.938.387 2.47 1.16.54.77.81 1.954.81 3.553v13.07z" fill="#1A1A1A"/><path d="M12 3.765c0-1.032.38-1.92 1.134-2.66A3.768 3.768 0 0 1 15.856 0a3.67 3.67 0 0 1 2.68 1.106c.744.74 1.114 1.627 1.114 2.66 0 1.046-.37 1.932-1.105 2.66-.732.723-1.63 1.085-2.69 1.085-1.086 0-2-.36-2.74-1.085C12.37 5.698 12 4.812 12 3.765z" fill="#8AC724"/></g></svg>