<svg width="32" height="32" viewBox="0 0 32 32" xmlns="http://www.w3.org/2000/svg"><g fill-rule="evenodd"><path d="M15.735 24.66s-.734.486-1.235.484c-.045.02-.07.033-.07.033v-.033a1.606 1.606 0 0 1-.318-.046l-.16-.04c-.875-.217-1.338-1.085-1.12-1.96l1.22-4.916.55-2.22c.51-2.062-1.624.438-2.062-.512-.29-.628 1.66-1.945 3.086-2.938 0 0 .733-.487 1.235-.485a4 4 0 0 1 .08-.033v.033c.11.005.216.02.32.046l.16.04a1.633 1.633 0 0 1 1.19 1.977l-1.22 4.917-.55 2.22c-.51 2.062 1.59-.447 2.03.503.29.627-1.698 1.935-3.12 2.93zm3.09-15.367a2.287 2.287 0 1 1-4.44-1.1 2.287 2.287 0 0 1 4.44 1.1z"/><path d="M16 0C7.162 0 0 7.162 0 16c0 8.838 7.162 16 16 16 8.838 0 16-7.162 16-16 0-8.838-7.162-16-16-16zm0 30C8.284 30 2 23.723 2 16 2 8.284 8.277 2 16 2c7.716 0 14 6.277 14 14 0 7.716-6.284 14-14 14z"/></g></svg>