<svg width="22" height="22" viewBox="0 0 22 22" xmlns="http://www.w3.org/2000/svg"><g stroke="currentColor" fill="none" fill-rule="evenodd" stroke-linejoin="round"><g transform="translate(11.833 11.833)"><circle cx="4.583" cy="4.583" r="4.167"/><path d="M4.583 2.5v4.167m2.084-2.084H2.5"/></g><path d="M12.638 12.068c-.647-.214-1.345-.444-2.055-.711V9.273s1.25-.515 1.25-2.5c.652 0 .652-1.725 0-1.725 0-.195.691-1.34.417-2.441-.395-1.587-5.022-1.587-5.417 0C4.86 2.209 6 4.84 6 5.107c-.652 0-.652 1.666 0 1.666 0 1.985 1.25 2.5 1.25 2.5v2.084c-2.315.88-5.073 1.463-5.417 2.5-.395 1.19-.416 3.393-.416 3.393h8.75"/></g></svg>