<svg width="32" height="32" viewBox="0 0 32 32" xmlns="http://www.w3.org/2000/svg"><g fill="#264970" fill-rule="evenodd"><path d="M9.168 2.058A2.08 2.08 0 1 0 9.17 6.22a2.08 2.08 0 0 0-.002-4.163m13.656.001c-1.15 0-2.078.928-2.078 2.08a2.08 2.08 0 0 0 4.156 0 2.08 2.08 0 0 0-2.078-2.08M15.996.16a2.08 2.08 0 0 0 0 4.16 2.08 2.08 0 0 0 2.078-2.08c0-1.152-.93-2.08-2.078-2.08m11.742 7.695a.654.654 0 0 0-.628-.09 32.09 32.09 0 0 1-4.14 1.25.814.814 0 0 0-.57.497c-.952 2.603-3.38 5.082-5.925 7.68-.102.096-.245.224-.478.224-.233 0-.374-.124-.48-.225-2.544-2.596-4.97-5.066-5.922-7.67a.815.815 0 0 0-.57-.497A32.135 32.135 0 0 1 4.88 7.76a.655.655 0 0 0-.624.09.65.65 0 0 0-.253.574c.216 2.165 1.07 4.282 2.615 6.5 1.45 2.085 3.344 4.015 5.174 5.88 3.372 3.44 6.557 6.69 6.837 10.456a.65.65 0 0 0 .65.603h3.96a.652.652 0 0 0 .65-.684c-.124-2.52-1.07-5.04-2.897-7.71a26.355 26.355 0 0 0-1.22-1.637.473.473 0 0 1 .032-.623l.397-.405c1.83-1.866 3.722-3.796 5.174-5.88 1.544-2.22 2.4-4.323 2.615-6.488a.668.668 0 0 0-.252-.582M11.746 23.735a.603.603 0 0 0-.463-.198.652.652 0 0 0-.537.306C9.08 26.38 8.22 28.773 8.1 31.177a.66.66 0 0 0 .18.483.66.66 0 0 0 .473.203h3.955c.34 0 .627-.266.652-.606.086-1.16.447-2.32 1.104-3.542a.918.918 0 0 0-.08-.988c-.652-.848-1.45-1.752-2.638-2.992"/><path d="M16 9.795c1.242 0 1.962-.074 2.215-.074a.604.604 0 0 1 .55.844c-.164.44-.914 2.024-2.31 3.383a.637.637 0 0 1-.458.18.636.636 0 0 1-.458-.18c-1.398-1.36-2.148-2.943-2.313-3.383a.605.605 0 0 1 .55-.843c.253 0 .973.074 2.214.074H16"/></g></svg>