<svg width="1920" height="1280" viewBox="0 0 1920 1280" xmlns="http://www.w3.org/2000/svg"><path d="M416 1024c-44 0-81.667-15.667-113-47s-47-69-47-113V160c0-44 15.667-81.667 47-113S372 0 416 0h1088c44 0 81.667 15.667 113 47s47 69 47 113v704c0 44-15.667 81.667-47 113s-69 47-113 47H416zm-32-864v704c0 8.667 3.167 16.167 9.5 22.5 6.333 6.333 13.833 9.5 22.5 9.5h1088c8.667 0 16.167-3.167 22.5-9.5 6.333-6.333 9.5-13.833 9.5-22.5V160c0-8.667-3.167-16.167-9.5-22.5-6.333-6.333-13.833-9.5-22.5-9.5H416c-8.667 0-16.167 3.167-22.5 9.5-6.333 6.333-9.5 13.833-9.5 22.5zm1376 928h160v96c0 26.667-15.667 49.333-47 68s-69 28-113 28H160c-44 0-81.667-9.333-113-28s-47-41.333-47-68v-96h1760zm-720 96c10.667 0 16-5.333 16-16s-5.333-16-16-16H880c-10.667 0-16 5.333-16 16s5.333 16 16 16h160z" fill-rule="evenodd"/></svg>