<svg width="10" height="12" viewBox="0 0 10 12" xmlns="http://www.w3.org/2000/svg"><g fill="none" fill-rule="evenodd"><path d="M-1 0h12v12H-1z"/><path d="M9.722 5H8V3c0-1.655-1.162-3-3-3S2 1.345 2 3v2H.278C.124 5 0 5.112 0 5.25v6.5c0 .138.124.25.278.25h9.444c.154 0 .278-.112.278-.25v-6.5c0-.138-.124-.25-.278-.25zM3 3c0-1.379.467-2 2-2 1.531 0 2 .621 2 2v2H3V3zm2.5 5.5v1.55c0 .248-.225.45-.5.45-.276 0-.5-.202-.5-.45V8.5C4.202 8.345 4 7.331 4 7c0-.497.448-.5 1-.5.55 0 1 .003 1 .5 0 .331-.203 1.345-.5 1.5z" fill="currentColor" fill-rule="nonzero"/></g></svg>