<svg width="12" height="12" viewBox="0 0 12 12" xmlns="http://www.w3.org/2000/svg"><g fill="none" fill-rule="evenodd"><path d="M0 0h12v12H0z"/><path d="M8.024 8.696V6.812l.48-.48 1.757-1.757.32.322a.249.249 0 0 0 .352 0l.994-.994a.249.249 0 0 0 0-.352L8.447.071a.25.25 0 0 0-.35 0l-.994.995a.25.25 0 0 0 0 .352l.321.321-2.236 2.237H3.303a.253.253 0 0 0-.176.071l-.745.746a.25.25 0 0 0 0 .352l1.666 2.31-3.976 3.478c-.096.098-.096.897 0 .994.097.097.898.097.994 0l3.48-3.975 2.308 1.665a.248.248 0 0 0 .351.001l.746-.745a.248.248 0 0 0 .073-.177z" fill="currentColor" fill-rule="nonzero"/></g></svg>