<svg width="28" height="32" viewBox="0 0 28 32" xmlns="http://www.w3.org/2000/svg"><g fill="none" fill-rule="evenodd"><path d="M22.002 0H3.997A4.004 4.004 0 0 0 0 4.004v23.992A3.998 3.998 0 0 0 3.997 32h20.006A4.004 4.004 0 0 0 28 27.996V7.002 10h-8V0h2.002z" fill="#E75A19"/><path d="M4 8v2h16V8H4zm0 11v1h6v-1H4zm0-4v1h8v-1H4zm15.35 8.814c2.465 0 4.464-2 4.464-4.465H19.35v-4.47a4.465 4.465 0 0 0 0 8.93zm5.95-5.954c0-2.466-2-4.465-4.465-4.465v4.465H25.3zM4 23v1h9v-1H4z" fill="#FFF"/><path d="M20 0l8 10h-8V0z" fill="#C74A11"/></g></svg>