<svg width="32" height="32" viewBox="0 0 32 32" xmlns="http://www.w3.org/2000/svg"><g fill-rule="evenodd"><path d="M12.094 7.4h-.552l-.046.55-.738 8.917c-.095 1.146.71 2.272 1.825 2.55l3.263.812.145.036.146-.037 3.263-.814c1.113-.277 1.92-1.403 1.825-2.55l-.74-8.916-.044-.55h-8.346zm7.935 9.566c.045.56-.378 1.15-.92 1.286l-3.158.77-3.078-.77c-.544-.135-.967-.726-.92-1.286 0 0 .446-5.59.675-8.358l6.703-.006c.235 2.8.696 8.364.696 8.364z"/><path d="M15.39 19.41v.952h1.2v-.95z"/><path d="M13.772 20.08h-.317l-.18.262-.633.933-.637.938h7.972l-.637-.938-.634-.933-.178-.263h-.318z"/><path d="M11.236 21.027h-.6v4.053h10.71v-4.053h-10.11zm1.06 1.193h-.466v1.66h8.32v-1.66h-7.854zm10.101-11.455s-.007-.008-.006.027c-.008.196 0 .188-.077.665a6.72 6.72 0 0 1-.683 2.09 5.556 5.556 0 0 1-1.48 1.785l.744.942a6.753 6.753 0 0 0 1.797-2.167c.416-.785.674-1.62.808-2.462.09-.558.112-1.04.1-1.41l-.005-.073-.038-.56H20.66l-.178.207-.735.846.906.787.32-.383.18-.207.084-.06 1.163.006-.003-.035zm-10.879-.957l-.18-.207H8.446l-.038.56-.004.075c-.013.368.01.85.1 1.41.133.842.39 1.676.806 2.46a6.753 6.753 0 0 0 1.796 2.167l.743-.942a5.556 5.556 0 0 1-1.48-1.785 6.72 6.72 0 0 1-.683-2.09c-.076-.476-.07-.467-.09-.673 0-.035.014.003.014.003l-.016.016c.38 0 .87-.003 1.074-.005h.097l.006-.027.577.673.906-.785m4.948 3.462v.02l.414-.396.87-.85-1.203-.174-.537-.06-.025.017-.19-.505-.54-1.09-.537 1.09-.232.478-.52.07-1.204.175.87.85.382.37-.093.515-.206 1.198 1.075-.565.43-.268.056.01.09-.016.372.227 1.06.61-.204-1.197"/></g></svg>