<svg width="32" height="32" viewBox="0 0 32 32" xmlns="http://www.w3.org/2000/svg"><g fill-rule="evenodd"><path d="M21.02 22.5c0 1.013.775 1.85 1.75 1.85s1.75-.837 1.75-1.85h-1c0 .478-.345.85-.75.85s-.75-.372-.75-.85h-1zm3.48 0v-13h-1v13zm-2.5 0v-13h-1v13z"/><path d="M20.348 23.5h-8.665c-1.817 0-2.183-.302-2.183-1.776V8.698c0-.095.116-.198.284-.198h12.13v-1H9.783c-.696 0-1.284.523-1.284 1.198v13.026c0 2.074.852 2.776 3.183 2.776h8.665v-1z"/><path d="M16 15.5h4v-1h-4zM10.5 13H20v-2h-9.5zm5.5 4.5h4v-1h-4zm0 2h4v-1h-4zm0 2h4v-1h-4zm-5-7h-.5v7H15v-7h-4zm.5 1H14v5h-2.5v-5z"/></g></svg>