<svg width="32" height="32" viewBox="0 0 32 32" xmlns="http://www.w3.org/2000/svg"><g fill-rule="evenodd"><path d="M7.4 10.54v11.132h17.2v-11.13H7.4zM24 20.473H8l.024-8.735H23.99l.01 8.735z"/><path d="M15.617 20.762l-1.542 3.69m2-3.69l1.542 3.69" stroke="currentColor" stroke-width="1.2"/><path d="M6.4 10c0 .6.494 1.1 1.1 1.1h17c.604 0 1.1-.493 1.1-1.1 0-.6-.494-1.1-1.1-1.1h-17c-.604 0-1.1.493-1.1 1.1zm4.863 8.238l.09-.106c.124-.14.23-.255.31-.33-.02.017.218-.005.036-.005.09 0 .53.004 1.592-.005h.082l1.198-.01c.43-.003.267.012.374.01l.936.694.502.365.348-.512 1.435-2.13 1.085 1.023.52.497.395-.602 2.01-3.065-1.005-.66-1.62 2.47-1.062-1.023-.512-.488-.397.584-1.48 2.198-.004.03v-.018l-.637-.462-.16-.117-.2.002-.536.004h-.127c-.42.006-.47.006-1.07.01h-.083c-1.048.01-1.718.015-1.803.015-.36 0-.525.156-1.03.74l-.1.116a18.822 18.822 0 0 0-.54.67l.95.73c.12-.155.306-.39.504-.623z"/></g></svg>