<svg width="32" height="32" viewBox="0 0 32 32" xmlns="http://www.w3.org/2000/svg"><g fill-rule="evenodd"><path d="M18.05 19.48a8.722 8.722 0 0 0 3.278-2.068 8.747 8.747 0 0 0 2.337-8.176l-.085-.365-.364-.083a8.747 8.747 0 0 0-8.176 2.337c-1.062 1.062-1.654 1.866-2.06 3.28-.043 0-.09 0-.14-.002a3.98 3.98 0 0 0-3.385 1.775l-.953 1.43 1.635-.525a2.785 2.785 0 0 1 3.4 1.527l.094.212.213.095a2.785 2.785 0 0 1 1.527 3.4l-.525 1.635 1.43-.953a3.98 3.98 0 0 0 1.774-3.386v-.13zm2.43-2.917a7.516 7.516 0 0 1-3.252 1.92l-.524.15.1.535c.027.152.043.307.046.464l-.208 1.112a3.79 3.79 0 0 0-2.096-2.805l-.033-.062a3.22 3.22 0 0 0-.112-.186c-.613-.955-1.745-1.667-2.817-1.903l-.026-.012c.36-.22 1.367-.134 1.67-.123.303.01.588.058.588.058l.154-.49a7.516 7.516 0 0 1 1.92-3.25c1.436-1.438 3.692-2.5 6.68-2.093a7.536 7.536 0 0 1-2.09 6.683z"/><path d="M19.174 13.278a1.677 1.677 0 1 0 2.37-2.372 1.677 1.677 0 0 0-2.37 2.372zm.848-.85a.477.477 0 1 1 .675-.673.477.477 0 0 1-.675.674zM9.448 23.706c.097-.02.267-.053.488-.102a22.726 22.726 0 0 0 1.715-.446c.827-.26 1.406-.52 1.728-.842a2.292 2.292 0 0 0-3.242-3.24c-.322.32-.582.9-.84 1.726-.06.19-.118.39-.175.597a23.55 23.55 0 0 0-.374 1.607l-.166.868.868-.166zm.992-2.546c.2-.642.407-1.1.545-1.238a1.092 1.092 0 0 1 1.545 1.545c-.138.137-.597.343-1.238.545a20.83 20.83 0 0 1-1.14.31s.232-.988.287-1.162z"/></g></svg>