<svg width="32" height="32" viewBox="0 0 32 32" xmlns="http://www.w3.org/2000/svg"><g fill-rule="evenodd"><path d="M23.993 20.786a7.993 7.993 0 0 0-15.986 0v.6h15.986v-.6zm-14.76-.602A6.794 6.794 0 0 1 16 13.994c3.61 0 6.564 2.816 6.78 6.206l-13.55-.014.003-.002z"/><path d="M11.01 18.764l1.072.54a5.528 5.528 0 0 1 3.015-2.688l-.415-1.126a6.728 6.728 0 0 0-3.67 3.274zm5.15-4.771a1.725 1.725 0 1 0 0-3.45 1.725 1.725 0 0 0 0 3.45zm0-1.2a.525.525 0 1 1 0-1.05.525.525 0 0 1 0 1.05zm-.745-7.363c-.168.055-.39.16-.618.332-.767.58-.96 1.502-.227 2.533.395.557.384.804.216.975a.45.45 0 0 1-.085.07l.49 1.095a1.51 1.51 0 0 0 .454-.325c.586-.6.626-1.493-.096-2.51-.34-.478-.298-.677-.028-.88.106-.08.216-.132.27-.15l-.375-1.14zM25 22.4H7v1.2h18z"/></g></svg>