<svg width="32" height="32" viewBox="0 0 32 32" xmlns="http://www.w3.org/2000/svg"><g fill-rule="evenodd"><path d="M16 25.267c2.498 0 4.267-4.182 4.267-9.267 0-5.085-1.77-9.267-4.267-9.267-2.498 0-4.267 4.182-4.267 9.267 0 5.085 1.77 9.267 4.267 9.267zm0-1.2c-1.553 0-3.067-3.58-3.067-8.067 0-4.488 1.514-8.067 3.067-8.067 1.553 0 3.067 3.58 3.067 8.067 0 4.488-1.514 8.067-3.067 8.067z"/><path d="M25.267 16c0-2.498-4.182-4.267-9.267-4.267-5.085 0-9.267 1.77-9.267 4.267 0 2.498 4.182 4.267 9.267 4.267 5.085 0 9.267-1.77 9.267-4.267zm-1.2 0c0 1.553-3.58 3.067-8.067 3.067-4.488 0-8.067-1.514-8.067-3.067 0-1.553 3.58-3.067 8.067-3.067 4.488 0 8.067 1.514 8.067 3.067z"/><path d="M22.553 9.447c-1.767-1.766-5.974-.06-9.57 3.536s-5.302 7.803-3.536 9.57c1.767 1.766 5.974.06 9.57-3.536s5.302-7.803 3.536-9.57zm-.85.85c1.1 1.097-.36 4.698-3.535 7.87-3.173 3.175-6.774 4.635-7.872 3.537-1.098-1.098.362-4.7 3.536-7.872 3.173-3.174 6.774-4.634 7.872-3.536z"/><path d="M22.482 22.482c1.71-1.71.025-5.868-3.536-9.428-3.56-3.56-7.717-5.246-9.428-3.536-1.71 1.71-.025 5.868 3.536 9.428 3.56 3.56 7.717 5.246 9.428 3.536zm-.707-.707c-1.154 1.153-4.806-.327-8.014-3.536-3.2-3.21-4.68-6.86-3.53-8.02 1.158-1.157 4.81.323 8.018 3.532 3.21 3.21 4.69 6.86 3.536 8.014z"/><path d="M16 17.5a1.5 1.5 0 1 0 0-3 1.5 1.5 0 0 0 0 3z"/></g></svg>