<svg width="32" height="32" viewBox="0 0 32 32" xmlns="http://www.w3.org/2000/svg"><path d="M25.543 32H6.873C5.285 32 4 30.754 4 29.217V2.783C4 1.246 5.286 0 6.872 0h13.644c.23 0 .426.112.557.275l7.06 6.837a.682.682 0 0 1 .282.54v21.565c0 1.537-1.286 2.783-2.872 2.783zm-4.31-29.572v5.78h4.754l-4.753-5.78zm5.746 6.94h-6.47a.706.706 0 0 1-.72-.693v-7.24H6.87c-.792 0-1.436.623-1.436 1.388V29.18c0 .765.644 1.387 1.436 1.387h18.67c.794 0 1.437-.622 1.437-1.388V8.37v.997zM22.67 22.6H9.745a.717.717 0 0 1 0-1.437H22.67a.718.718 0 0 1 0 1.437zm0-4.13H9.745a.717.717 0 0 1 0-1.436H22.67a.718.718 0 0 1 0 1.436zm0-4.13H9.745a.717.717 0 0 1 0-1.435H22.67a.718.718 0 0 1 0 1.436zm-5.798-4.128H9.44c-.23 0-.413-.32-.413-.718 0-.396.184-.718.413-.718h7.432c.228 0 .413.322.413.718 0 .397-.185.718-.413.718zm0-4.13H9.44c-.23 0-.413-.32-.413-.717 0-.396.184-.718.413-.718h7.432c.228 0 .413.322.413.718 0 .397-.185.718-.413.718zM22.67 26.73H9.745a.717.717 0 0 1 0-1.438H22.67a.718.718 0 0 1 0 1.437z" fill-rule="evenodd"/></svg>