<svg width="32" height="32" viewBox="0 0 32 32" xmlns="http://www.w3.org/2000/svg"><path d="M30.645 19.398c.228-1.043.347-2.12.347-3.23 0-8.31-6.737-15.047-15.048-15.047-.877 0-1.736.08-2.575.22A8.673 8.673 0 0 0 8.72 0a8.728 8.728 0 0 0-7.53 13.142c-.2.977-.303 1.99-.303 3.026 0 8.312 6.736 15.05 15.05 15.05.94 0 1.86-.088 2.754-.253a8.726 8.726 0 0 0 12.86-7.692 8.685 8.685 0 0 0-.904-3.875zm-6.983 3.962c-.695.984-1.724 1.765-3.058 2.32-1.32.548-2.902.826-4.7.826-2.163 0-3.976-.38-5.39-1.13a7.03 7.03 0 0 1-2.478-2.2c-.638-.92-.962-1.835-.962-2.718 0-.55.21-1.03.627-1.42.42-.388.94-.585 1.58-.585.52 0 .97.154 1.33.46.35.295.64.73.88 1.29.27.613.56 1.128.87 1.532.296.392.72.72 1.26.977.548.258 1.284.39 2.188.39 1.245 0 2.266-.266 3.033-.79.75-.51 1.11-1.126 1.11-1.877 0-.594-.19-1.06-.58-1.428-.41-.384-.95-.68-1.606-.886a32.17 32.17 0 0 0-2.76-.68c-1.56-.33-2.89-.73-3.942-1.18-1.08-.46-1.95-1.09-2.584-1.89-.644-.81-.972-1.82-.972-3.01a4.89 4.89 0 0 1 1.01-3.05c.67-.88 1.657-1.56 2.92-2.03 1.25-.46 2.736-.69 4.418-.69 1.345 0 2.525.157 3.51.462.995.308 1.83.726 2.487 1.24.66.516 1.156 1.068 1.465 1.644.31.58.47 1.157.47 1.715 0 .54-.21 1.027-.62 1.454a2.07 2.07 0 0 1-1.55.65c-.56 0-.99-.132-1.3-.4-.28-.25-.573-.64-.9-1.2-.373-.71-.83-1.27-1.35-1.67-.505-.38-1.35-.58-2.512-.58-1.078 0-1.956.22-2.607.65-.63.41-.933.88-.933 1.44 0 .345.1.63.3.877.215.26.517.49.897.68.394.2.804.357 1.21.47.417.116 1.12.287 2.08.51a35.3 35.3 0 0 1 3.327.87c1.004.32 1.868.716 2.576 1.177a5.13 5.13 0 0 1 1.695 1.79c.405.725.61 1.616.61 2.653a5.7 5.7 0 0 1-1.054 3.352z" fill-rule="evenodd"/></svg>