<svg width="32" height="32" viewBox="0 0 32 32" xmlns="http://www.w3.org/2000/svg"><path d="M16 0C7.164 0 0 7.163 0 16c0 8.836 7.164 16 16 16 8.837 0 16-7.164 16-16 0-8.837-7.164-16-16-16zm6.49 23.55c-.258 0-.435-.09-.676-.238-2.32-1.402-5.21-2.14-8.28-2.14-1.71 0-3.434.22-5.046.555-.262.057-.592.158-.79.158a1 1 0 0 1-1.01-1.005c0-.673.387-1.007.87-1.1 1.975-.45 3.943-.707 5.988-.707 3.5 0 6.62.803 9.306 2.413.4.233.634.47.634 1.063 0 .576-.47 1-.995 1zm1.744-4.235c-.347 0-.565-.14-.8-.278-2.604-1.544-6.21-2.57-10.16-2.57a20.17 20.17 0 0 0-5.223.67c-.31.084-.486.177-.778.177-.688 0-1.25-.56-1.25-1.255 0-.68.33-1.15.995-1.337 1.8-.494 3.636-.875 6.31-.875 4.187 0 8.24 1.043 11.424 2.95.535.306.73.694.73 1.264 0 .693-.55 1.253-1.246 1.253zm1.985-4.925c-.326 0-.52-.08-.825-.247-2.896-1.736-7.39-2.693-11.737-2.693-2.17 0-4.373.22-6.39.77-.234.057-.528.174-.822.174-.853 0-1.508-.675-1.508-1.53 0-.87.54-1.357 1.12-1.528 2.28-.672 4.827-.985 7.594-.985 4.7 0 9.64.967 13.252 3.088.487.275.825.69.825 1.453 0 .873-.702 1.5-1.51 1.5z" fill="#2EBD59" fill-rule="evenodd"/></svg>