<svg width="28" height="32" viewBox="0 0 28 32" xmlns="http://www.w3.org/2000/svg"><g fill="none" fill-rule="evenodd"><path d="M22.002 0H3.997A4.004 4.004 0 0 0 0 4.004v23.992A3.998 3.998 0 0 0 3.997 32h20.006A4.004 4.004 0 0 0 28 27.996V7.002 10h-8V0h2.002z" fill="#5AC318"/><path d="M6 7h4v2H6zm6 0h4v2h-4zm6 0h4v2h-4zM6 11h4v2H6zm6 0h4v2h-4zm6 0h4v2h-4zM6 15h4v2H6zm6 0h4v2h-4zm6 0h4v2h-4zM6 19h4v2H6zm6 0h4v2h-4zm6 0h4v2h-4zM6 23h4v2H6zm6 0h4v2h-4zm6 0h4v2h-4z" stroke="#FFF" fill="#FFF"/><path d="M20 0l8 10h-8V0z" fill="#46A10C"/></g></svg>