<svg width="32" height="32" viewBox="0 0 32 32" xmlns="http://www.w3.org/2000/svg"><g fill="none" fill-rule="evenodd"><path d="M4.017 18.676l2.397.024-.083 10.673h15.953V18.74h2.526v13.226H4.003l.013-13.29z" fill="#919191"/><path fill="#919191" d="M7.926 24.986h12.496v2.66H7.926z"/><path d="M20.46 24.12L7.955 22.913l.26-2.712 12.506 1.208-.26 2.712z" fill="#A78B68"/><path d="M20.71 20.828L8.62 17.416l.74-2.622 12.09 3.41-.74 2.624z" fill="#C19653"/><path d="M21.636 17.503l-10.753-6.495 1.408-2.333 10.755 6.495-1.41 2.333z" fill="#D48C28"/><path d="M23.51 14.68L16.19 4.466l2.215-1.587 7.318 10.212-2.216 1.587z" fill="#FE8908"/><path d="M26.29 12.948L24.22.558l2.686-.45 2.07 12.39-2.687.45z" fill="#FF7A15"/></g></svg>