<svg width="19" height="19" viewBox="0 0 19 19" xmlns="http://www.w3.org/2000/svg"><g fill="none" fill-rule="evenodd"><path d="M0-1h20v20H0z"/><path d="M7.688 11.312L.894 18.106M14.5 8.5l1.492-1.718.755.755 1.51-1.51L12.973.743l-1.51 1.51.755.755-3.775 3.774h-3.02L4.291 7.915 8 12" stroke-linecap="round" stroke="currentColor" stroke-linejoin="round"/><g stroke="currentColor" stroke-linejoin="round"><path d="M13.5 17.5c2.327 0 4-1.408 4-3.556 0-2.147-1.673-4.444-4-4.444s-4 2.297-4 4.444c0 2.148 1.673 3.556 4 3.556z"/><path d="M11 11l5 5m0-5c.182-.056-1.485 1.611-5 5" stroke-linecap="round"/></g></g></svg>