<svg width="16" height="16" viewBox="0 0 16 16" fill="none" xmlns="http://www.w3.org/2000/svg"><circle cx="8" cy="8" r="7.5" stroke="currentColor"/><path d="M9.1428 11.7054V10.0089C9.1428 9.9256 9.11453 9.85566 9.05798 9.79911C9.00144 9.74256 8.93447 9.71429 8.85709 9.71429H7.1428C7.06542 9.71429 6.99846 9.74256 6.94191 9.79911C6.88536 9.85566 6.85709 9.9256 6.85709 10.0089V11.7054C6.85709 11.7887 6.88536 11.8586 6.94191 11.9152C6.99846 11.9717 7.06542 12 7.1428 12H8.85709C8.93447 12 9.00144 11.9717 9.05798 11.9152C9.11453 11.8586 9.1428 11.7887 9.1428 11.7054ZM9.12495 8.36607L9.28566 4.26786C9.28566 4.19643 9.2559 4.13988 9.19638 4.09821C9.119 4.03274 9.04757 4 8.98209 4H7.0178C6.95233 4 6.8809 4.03274 6.80352 4.09821C6.744 4.13988 6.71423 4.20238 6.71423 4.28571L6.86602 8.36607C6.86602 8.4256 6.89578 8.4747 6.9553 8.51339C7.01483 8.55208 7.08626 8.57143 7.16959 8.57143H8.82138C8.90471 8.57143 8.97465 8.55208 9.0312 8.51339C9.08775 8.4747 9.119 8.4256 9.12495 8.36607Z" fill="currentColor"/></svg>
