<svg width="20" height="19" viewBox="0 0 20 19" xmlns="http://www.w3.org/2000/svg"><g fill="none" fill-rule="evenodd"><path d="M0-1h20v20H0z"/><path d="M1.394 4.482h15.74" stroke="currentColor" stroke-linecap="round" stroke-linejoin="round"/><path d="M3.5 2c-.276 0-.5.22-.5.492 0 .271.224.491.5.491s.5-.22.5-.491A.496.496 0 0 0 3.5 2zm2 0c-.276 0-.5.22-.5.492 0 .271.224.491.5.491s.5-.22.5-.491A.496.496 0 0 0 5.5 2zm2 0c-.276 0-.5.22-.5.492 0 .271.224.491.5.491s.5-.22.5-.491A.496.496 0 0 0 7.5 2z" fill="currentColor" fill-rule="nonzero"/><path d="M9.5 12.5H2.968c-.87 0-1.468-.146-1.468-1V1.935C1.5 1.08 2.099.5 2.968.5H15.5c.87 0 2 .58 2 1.435V9" stroke="currentColor" stroke-linecap="round" stroke-linejoin="round"/><g stroke="currentColor" stroke-linejoin="round"><path d="M14.5 16.5c1.45 0 3-1.55 3-3s-1.55-3-3-3-3 1.55-3 3 1.55 3 3 3z"/><path d="M19.5 18.75l-3-3" stroke-linecap="round"/></g></g></svg>