<svg width="32" height="32" viewBox="0 0 32 32" xmlns="http://www.w3.org/2000/svg"><path d="M16 0C7.178 0 0 7.178 0 16s7.178 16 16 16 16-7.178 16-16S24.822 0 16 0zM1.615 16c0-2.086.447-4.065 1.246-5.854l6.862 18.8C4.924 26.616 1.615 21.694 1.615 16zM16 30.386a14.37 14.37 0 0 1-4.063-.585l4.316-12.54 4.422 12.113c.03.07.064.136.103.197a14.32 14.32 0 0 1-4.778.816zm1.982-21.13a29.044 29.044 0 0 0 1.646-.137c.775-.093.684-1.232-.092-1.187 0 0-2.33.183-3.834.183-1.414 0-3.79-.183-3.79-.183-.774-.046-.865 1.14-.09 1.186 0 0 .734.09 1.51.135l2.24 6.142-3.148 9.44L7.187 9.256c.867-.045 1.646-.136 1.646-.136.773-.093.684-1.232-.092-1.187 0 0-2.33.183-3.834.183-.27 0-.588-.006-.926-.018C6.554 4.193 10.975 1.615 16 1.615a14.33 14.33 0 0 1 9.715 3.777c-.062-.005-.123-.013-.187-.013-1.413 0-2.416 1.23-2.416 2.553 0 1.186.684 2.188 1.413 3.374.547.957 1.187 2.188 1.187 3.968 0 1.23-.474 2.66-1.095 4.65l-1.436 4.793-5.198-15.463zm10.64-.157a14.316 14.316 0 0 1 1.763 6.9c0 5.308-2.876 9.94-7.152 12.435l4.394-12.704c.82-2.05 1.094-3.692 1.094-5.15 0-.53-.034-1.022-.097-1.48z" fill="#21759B" fill-rule="evenodd"/></svg>