<svg width="32" height="32" viewBox="0 0 32 32" xmlns="http://www.w3.org/2000/svg"><defs><linearGradient x1="-26.188%" y1="-51.58%" x2="181.371%" y2="225.076%" id="a"><stop stop-color="#DD272D" offset="0%"/><stop stop-color="#CA2429" offset="51.53%"/><stop stop-color="#B22025" offset="100%"/></linearGradient></defs><path d="M30.41 5.79c-1.22-1.358-2.582-1.366-3.207-1.443C22.723 4 16.007 4 16.007 4h-.015s-6.717 0-11.195.347c-.625.077-1.987.085-3.206 1.444C.634 6.828.32 9.18.32 9.18S0 11.943 0 14.705v2.59c0 2.763.32 5.524.32 5.524s.312 2.353 1.27 3.387c1.22 1.358 2.817 1.317 3.53 1.46 2.56.262 10.88.343 10.88.343s6.724-.012 11.203-.355c.625-.08 1.988-.088 3.206-1.447.957-1.034 1.27-3.387 1.27-3.387s.32-2.763.32-5.526v-2.59c0-2.76-.32-5.523-.32-5.523s-.312-2.353-1.27-3.39zM12.003 22.007V10.002l10.003 6.002-10.003 6.002z" fill="url(#a)" fill-rule="evenodd"/></svg>