<svg width="32" height="32" viewBox="0 0 32 32" xmlns="http://www.w3.org/2000/svg"><path d="M25.038 25.508a14.6 14.6 0 0 1-2.638 1.94c-.963.55-1.984.974-3.05 1.272a12.45 12.45 0 0 1-3.35.458 15.32 15.32 0 0 1-5.07-.848 11.73 11.73 0 0 1-4.14-2.478c-1.17-1.066-2.397-2.856-3.12-4.542-.63-1.468-.894-3.05-.894-5.494 0-1.73.4-3.647 1.09-5.275A12.754 12.754 0 0 1 6.618 6.46c1.147-1.135 2.546-2.064 4.163-2.752 1.448-.608 3.156-.906 5.23-.906 1.643 0 3.214.262 4.648.778 1.4.505 2.626 1.228 3.647 2.157.94.86 1.525 1.904 2.145 3.314.538 1.203.744 2.27.744 3.933 0 1.353-.24 2.65-.71 3.83-.47 1.16-.827 1.87-1.538 2.753-.745.895-1.158 1.388-1.95 1.847-.917.54-1.617.79-2.18.79-.446 0-.584-.102-.595-.114-.067-.058-.124-.138-.16-.333-.033-.264 0-.62.104-1.02.115-.46.287-.896.54-1.504L25.29 6.916h-3.016l-.528 1.4A5.714 5.714 0 0 0 20.29 7.1c-1.308-.757-2.41-1.067-3.808-1.067-1.63 0-3.154.424-4.508 1.262a11.667 11.667 0 0 0-3.36 3.13c-.895 1.24-1.124 1.905-1.537 3.132l-.07.206c-.492 1.47-.745 2.914-.745 4.302 0 .93.172 1.835.505 2.672.333.85.79 1.583 1.365 2.18.562.618 1.262 1.112 2.087 1.49a6.288 6.288 0 0 0 2.636.562c1.056 0 2.02-.174 3.143-.564a5.267 5.267 0 0 0 1.696-.975c.115.196.264.368.436.53.666.664 1.55 1.01 2.604 1.01 1.055 0 2.19-.357 3.555-1.126 1.217-.688 1.928-1.48 2.8-2.523.986-1.18 1.48-2.19 2.007-3.532.597-1.48.895-3.098.895-4.795 0-2.133-.287-3.59-1.02-5.196-.78-1.698-1.572-3.063-2.868-4.21C24.82 2.443 23.284 1.56 21.54.94 19.82.334 17.973.035 16.034.035c-2.362 0-4.38.356-6.16 1.08a16.074 16.074 0 0 0-5.08 3.256 15.596 15.596 0 0 0-3.43 4.956c-.86 1.95-1.34 4.312-1.34 6.503 0 2.947.366 5.01 1.226 6.892.952 2.066 2.5 4.188 3.934 5.426a14.287 14.287 0 0 0 5.116 2.868 18.9 18.9 0 0 0 5.734.906c1.32 0 2.673-.184 4.026-.54a16.585 16.585 0 0 0 3.785-1.548 17.143 17.143 0 0 0 3.326-2.43c1.035-.965 2.204-2.467 2.617-3.2.218-.403.356-.7.425-.884h-3.165a22.233 22.233 0 0 1-2.007 2.19zm-8.052-5.448c-.516.654-.848 1.044-1.25 1.308-.447.31-.803.504-1.26.608h-.013c-.46.114-.952.183-1.457.183a3.898 3.898 0 0 1-1.582-.31 3.595 3.595 0 0 1-1.24-.86 4.26 4.26 0 0 1-.836-1.31 4.61 4.61 0 0 1-.3-1.662c0-1.034.196-2.158.586-3.328.046-.137.092-.286.127-.39.31-.95.47-1.25 1.045-2.202.528-.87 1.354-1.674 2.5-2.443a5.31 5.31 0 0 1 3.017-.917c.448 0 .92.057 1.412.16.355.08.54.184.895.39l.02.012c.046.023.09.046.15.08l.034.023a4 4 0 0 1 1.067.895c.24.286.436.653.586 1.112l-2.306 6.48c-.356.872-.758 1.606-1.194 2.168z" fill-rule="evenodd"/></svg>