<svg width="32" height="32" viewBox="0 0 32 32" xmlns="http://www.w3.org/2000/svg"><g fill-rule="evenodd"><path d="M29.23 25c-2.88 4.226-7.73 7-13.23 7-8.837 0-16-7.163-16-16S7.163 0 16 0c5.5 0 10.35 2.774 13.23 7h-2.506A13.97 13.97 0 0 0 16 2C8.268 2 2 8.268 2 16s6.268 14 14 14a13.97 13.97 0 0 0 10.724-5h2.507z"/><path d="M31.637 15.01c.263.254.395.6.395.98 0 .382-.132.724-.395.982L27.24 21.59a1.297 1.297 0 0 1-1.893 0c-.52-.548.152-1.006.674-1.553l2.49-3-18.176-.065c-.745 0-1.333-.205-1.333-.98 0-.776.594-.982 1.334-.982H28.51l-2.488-2.986c-.52-.547-1.198-1.066-.677-1.613a1.302 1.302 0 0 1 1.898 0l4.397 4.6z"/></g></svg>