<svg width="32" height="32" viewBox="0 0 32 32" xmlns="http://www.w3.org/2000/svg"><path d="M11.72 25.388l-1.62 1.608a3.623 3.623 0 0 1-5.09 0 3.502 3.502 0 0 1-1.044-2.502c0-.945.37-1.834 1.044-2.504l5.96-5.913c1.236-1.225 3.56-3.028 5.253-1.35a1.983 1.983 0 1 0 2.794-2.812c-2.88-2.857-7.134-2.33-10.84 1.348l-5.96 5.913A7.442 7.442 0 0 0 0 24.494a7.44 7.44 0 0 0 2.218 5.316A7.554 7.554 0 0 0 7.555 32c1.933 0 3.867-.73 5.34-2.19l1.62-1.61a1.982 1.982 0 1 0-2.796-2.812zm18.06-22.97C26.69-.65 22.366-.817 19.504 2.023l-2.018 2.004A1.982 1.982 0 0 0 20.28 6.84l2.018-2.002c1.482-1.472 3.424-.862 4.69.394a3.5 3.5 0 0 1 1.046 2.504 3.5 3.5 0 0 1-1.045 2.503l-6.36 6.305c-2.91 2.885-4.27 1.53-4.855.953a1.983 1.983 0 1 0-2.794 2.813c1.336 1.326 2.86 1.983 4.456 1.983 1.956 0 4.022-.985 5.986-2.935l6.358-6.307A7.444 7.444 0 0 0 32 7.736c0-2.01-.788-3.897-2.218-5.317z" fill-rule="evenodd"/></svg>