<svg width="32" height="32" viewBox="0 0 32 32" xmlns="http://www.w3.org/2000/svg"><path d="M22.516 19.427a12.306 12.306 0 0 0 2.215-7.063C24.73 5.534 19.198 0 12.37 0 5.538 0 0 5.535 0 12.364c0 6.828 5.536 12.363 12.366 12.363 2.626 0 5.06-.818 7.063-2.214l9.17 9.168c.17.17.44.18.613.004l2.472-2.47a.442.442 0 0 0 0-.616l-9.17-9.17zm-10.15 2.39c5.222 0 9.456-4.232 9.456-9.453 0-5.222-4.234-9.455-9.456-9.455-5.223 0-9.456 4.23-9.456 9.452 0 5.22 4.233 9.454 9.456 9.454z" fill-rule="evenodd"/></svg>