<svg width="28" height="32" viewBox="0 0 28 32" xmlns="http://www.w3.org/2000/svg"><g fill="none" fill-rule="evenodd"><path d="M22.002 0H3.997A4.004 4.004 0 0 0 0 4.004v23.992A3.998 3.998 0 0 0 3.997 32h20.006A4.004 4.004 0 0 0 28 27.996V7.002 10h-8V0h2.002z" fill="#EA4C3A"/><path d="M20 0l8 10h-8V0z" fill="#C63726"/><path d="M14.54 9.183c.337.166.267.38.163 1.397-.106 1.048-.46 2.96-1.144 4.844-.69 1.88-1.7 3.727-2.59 5.094-.886 1.367-1.64 2.256-2.22 2.77-.58.513-.98.65-1.24.695-.26.045-.377 0-.45-.138-.07-.137-.092-.363-.032-.64.06-.27.2-.59.6-1 .403-.41 1.062-.912 1.983-1.38.92-.466 2.1-.9 3.07-1.196a21.572 21.572 0 0 1 2.383-.588 17.152 17.152 0 0 1 1.782-.263 10.16 10.16 0 0 1 1.63 0c.53.047 1.05.137 1.5.252.445.114.824.25 1.154.468.33.217.614.514.755.846.142.328.142.694.024.955-.12.266-.357.425-.627.517-.273.09-.58.11-.946 0-.365-.116-.79-.367-1.24-.697-.447-.33-.92-.744-1.53-1.38a27.224 27.224 0 0 1-2.01-2.35c-.635-.842-1.156-1.662-1.51-2.36a9.055 9.055 0 0 1-.696-1.832c-.152-.57-.27-1.14-.317-1.654a6.097 6.097 0 0 1 .022-1.335c.046-.364.12-.64.236-.82a.84.84 0 0 1 .4-.32c.12-.046.19-.046.26-.058.07-.012.14-.034.25 0 .102.033.24.12.375.21" stroke="#FFF" stroke-width="1.4"/></g></svg>