<svg width="28" height="32" viewBox="0 0 28 32" xmlns="http://www.w3.org/2000/svg"><g fill="none" fill-rule="evenodd"><path d="M22.002 0H3.997A4.004 4.004 0 0 0 0 4.004v23.992A3.998 3.998 0 0 0 3.997 32h20.006A4.004 4.004 0 0 0 28 27.996V7.002 10h-8V0h2.002z" fill="#EA4C3A"/><path d="M20 0l8 10h-8V0z" fill="#C63726"/><path d="M14.54 9.183c.337.166.267.38.163 1.397-.106 1.048-.46 2.96-1.144 4.844-.69 1.88-1.7 3.727-2.59 5.094-.89 1.367-1.64 2.256-2.22 2.77-.58.513-.98.65-1.24.695-.26.045-.38 0-.45-.138-.07-.137-.1-.363-.04-.64.06-.27.2-.59.6-1 .4-.41 1.06-.912 1.98-1.38.92-.466 2.1-.9 3.07-1.196a21.572 21.572 0 0 1 2.38-.59 17.152 17.152 0 0 1 1.78-.27 10.16 10.16 0 0 1 1.63 0c.53.044 1.05.134 1.5.25.447.112.826.25 1.156.466.33.217.613.514.754.846.14.33.14.694.024.955-.12.265-.358.424-.628.516-.274.09-.58.11-.947 0-.366-.116-.79-.367-1.24-.697-.448-.33-.92-.744-1.53-1.38a27.224 27.224 0 0 1-2.01-2.35c-.636-.84-1.157-1.66-1.51-2.36a9.055 9.055 0 0 1-.697-1.83c-.154-.57-.27-1.14-.32-1.655a6.097 6.097 0 0 1 .023-1.334c.045-.362.12-.64.235-.82a.84.84 0 0 1 .4-.32c.12-.044.19-.044.26-.056.07-.01.14-.033.25 0 .1.034.24.12.375.21" stroke="#FFF" stroke-width="1.4"/></g></svg>