<svg width="32" height="32" viewBox="0 0 32 32" xmlns="http://www.w3.org/2000/svg"><path d="M6.545.04C8.572-.317 9.9 1.81 10.91 3.28c.985 1.425 2.196 3.098 1.707 4.954-.272 1.042-1.283 1.61-2.047 2.224-.754.607-1.902 1.163-2.18 2.095-.456 1.512.54 3.1 1.156 4.003a23.606 23.606 0 0 0 5.255 5.526c1.05.797 2.5 1.862 3.96 1.588 2.18-.41 2.75-2.906 5.12-3.24 2.26-.317 3.78 1.205 5.05 2.224 1.23.987 3.21 2.25 3.07 3.94-.08.97-.91 1.573-1.64 2.16-.74.6-1.38 1.27-2.11 1.713-1.762 1.073-3.93 1.598-6.412 1.526-2.436-.07-4.38-.84-6.14-1.715-3.443-1.71-6.165-4.117-8.73-6.798-2.522-2.637-4.85-5.758-6.14-9.208C-.79 9.962.06 5.536 2.66 2.774c.44-.47 1.135-.958 1.77-1.462C5.067.807 5.655.196 6.547.04z" fill-rule="evenodd"/></svg>