<svg width="35" height="45" viewBox="0 0 35 45" xmlns="http://www.w3.org/2000/svg"><path d="M35 15.833v-2.5h-8.148c-1.808 0-3.273-1.478-3.273-3.33V0H3.27C1.462 0 0 1.497 0 3.346v38.308C0 43.502 1.454 45 3.26 45h28.48c1.8 0 3.26-1.485 3.26-3.33V15.834zM9.486 29v-3h2.124c1.668 0 2.604-1.14 2.604-2.496 0-1.368-.924-2.508-2.604-2.508H8.082V29h1.404zm1.932-4.236H9.486v-2.532h1.932c.792 0 1.356.504 1.356 1.272 0 .756-.564 1.26-1.356 1.26zM16.794 29v-3h2.124c1.668 0 2.604-1.14 2.604-2.496 0-1.368-.924-2.508-2.604-2.508H15.39V29h1.404zm1.932-4.236h-1.932v-2.532h1.932c.792 0 1.356.504 1.356 1.272 0 .756-.564 1.26-1.356 1.26zM26.01 29v-6.768h2.424v-1.236h-6.252v1.236h2.424V29h1.404zm-.8-29v9.995c0 .923.736 1.672 1.617 1.672H35L25.21 0z" fill="#EB440F" fill-rule="evenodd"/></svg>