<svg width="32" height="32" viewBox="0 0 32 32" xmlns="http://www.w3.org/2000/svg"><path d="M25.038 25.508a14.6 14.6 0 0 1-2.638 1.94c-.963.55-1.984.974-3.05 1.272a12.45 12.45 0 0 1-3.35.458 15.32 15.32 0 0 1-5.07-.848 11.73 11.73 0 0 1-4.14-2.478c-1.17-1.066-2.397-2.856-3.12-4.542-.63-1.468-.894-3.05-.894-5.494 0-1.73.4-3.647 1.09-5.275a12.754 12.754 0 0 1 2.752-4.08C7.765 5.33 9.164 4.4 10.78 3.71c1.45-.61 3.16-.906 5.23-.906 1.646 0 3.217.262 4.65.778 1.4.506 2.627 1.23 3.648 2.158.94.86 1.525 1.904 2.145 3.314.54 1.204.745 2.27.745 3.934 0 1.353-.24 2.65-.71 3.83-.47 1.16-.827 1.87-1.538 2.753-.746.9-1.16 1.39-1.95 1.85-.918.54-1.618.79-2.18.79-.447 0-.585-.1-.596-.11-.067-.06-.124-.14-.16-.33-.033-.265 0-.62.104-1.02.115-.46.287-.897.54-1.505L25.29 6.92h-3.016l-.528 1.4A5.714 5.714 0 0 0 20.29 7.1c-1.308-.757-2.41-1.067-3.808-1.067-1.63 0-3.154.424-4.508 1.262a11.667 11.667 0 0 0-3.36 3.13c-.895 1.24-1.124 1.905-1.537 3.132l-.07.206c-.492 1.47-.745 2.914-.745 4.302 0 .93.172 1.835.505 2.672.333.85.79 1.583 1.365 2.18.562.618 1.262 1.112 2.087 1.49a6.288 6.288 0 0 0 2.63.562c1.05 0 2.02-.18 3.14-.57a5.267 5.267 0 0 0 1.693-.98 2.5 2.5 0 0 0 .436.53c.665.662 1.55 1.01 2.603 1.01 1.055 0 2.19-.36 3.555-1.128 1.215-.688 1.926-1.48 2.8-2.523.984-1.18 1.48-2.19 2.005-3.53.598-1.48.896-3.1.896-4.796 0-2.133-.287-3.59-1.02-5.196-.78-1.7-1.57-3.064-2.868-4.21C24.82 2.443 23.28 1.56 21.54.94 19.82.334 17.973.035 16.034.035c-2.362 0-4.38.356-6.16 1.08a16.074 16.074 0 0 0-5.08 3.256 15.596 15.596 0 0 0-3.43 4.96c-.86 1.95-1.34 4.31-1.34 6.51 0 2.95.366 5.01 1.226 6.894.952 2.066 2.5 4.188 3.934 5.426a14.287 14.287 0 0 0 5.116 2.86 18.9 18.9 0 0 0 5.734.906c1.32 0 2.673-.184 4.026-.54a16.585 16.585 0 0 0 3.785-1.548 17.143 17.143 0 0 0 3.326-2.43c1.04-.965 2.21-2.467 2.62-3.2.22-.403.36-.7.43-.884h-3.17a22.233 22.233 0 0 1-2.003 2.19zm-8.052-5.448c-.516.654-.848 1.044-1.25 1.308-.447.31-.803.504-1.26.608h-.013c-.46.114-.952.183-1.457.183a3.898 3.898 0 0 1-1.582-.31 3.595 3.595 0 0 1-1.24-.86 4.26 4.26 0 0 1-.836-1.31 4.61 4.61 0 0 1-.3-1.67c0-1.038.196-2.16.586-3.33.046-.14.092-.29.127-.39.31-.95.47-1.25 1.05-2.205.53-.87 1.36-1.674 2.5-2.443a5.31 5.31 0 0 1 3.02-.917c.45 0 .92.06 1.41.16.36.08.54.186.9.39l.02.014c.047.022.09.045.15.08l.035.022a4 4 0 0 1 1.066.894c.24.286.437.653.587 1.112l-2.306 6.48c-.355.87-.757 1.603-1.193 2.165z" fill-rule="evenodd"/></svg>