<svg width="20" height="19" viewBox="0 0 20 19" xmlns="http://www.w3.org/2000/svg"><g fill="none" fill-rule="evenodd"><path d="M0 0h20v20H0z"/><g stroke="currentColor" stroke-linecap="round" stroke-linejoin="round"><path d="M17 14l.083-4.716c0-3.054-1.89-5.778-4.583-6.784-.184-1.203-1.167-2-2.417-2-1.25 0-2.399.797-2.583 2-2.693 1.006-4.417 3.73-4.417 6.784L3 14c0 1.386-1.12 2.5-2.5 2.5h19A2.495 2.495 0 0 1 17 14z"/><path d="M12.5 16.5c0 1.386-1.12 2-2.5 2-1.383 0-2.5-.614-2.5-2"/></g></g></svg>