<svg width="20" height="21" viewBox="0 0 20 21" xmlns="http://www.w3.org/2000/svg"><g stroke="currentColor" fill="none" fill-rule="evenodd" stroke-linejoin="round"><path d="M12.466 3.544A2.5 2.5 0 0 0 10 1.418c-1.25 0-2.285.923-2.47 2.126a7.104 7.104 0 0 0-4.613 6.659v4.6c0 1.387-1.12 2.51-2.5 2.51h19.166a2.504 2.504 0 0 1-2.5-2.51M12.5 17.314c0 1.386-1.12 2.51-2.5 2.51a2.504 2.504 0 0 1-2.5-2.51"/><g transform="translate(10 4)"><circle cx="5" cy="5" r="1.5"/><path d="M8.39 4.197l1.007-.582-1-1.732-1.007.582A3.474 3.474 0 0 0 6 1.655V.5H4v1.156a3.49 3.49 0 0 0-1.395.806l-1.002-.579-1 1.732 1 .577a3.46 3.46 0 0 0 .005 1.61l-1.005.581 1 1.732 1.005-.581c.386.364.851.65 1.392.812V9.5h2V8.344a3.504 3.504 0 0 0 1.395-.807l1.002.579 1-1.732-1.001-.578a3.483 3.483 0 0 0-.006-1.609z"/></g></g></svg>