<svg width="20" height="21" viewBox="0 0 20 21" xmlns="http://www.w3.org/2000/svg"><g stroke="currentColor" fill="none" fill-rule="evenodd" stroke-linecap="round" stroke-linejoin="round"><path d="M12.466 3.544A2.5 2.5 0 0 0 10 1.418c-1.25 0-2.285.923-2.47 2.126a7.085 7.085 0 0 0-1.949 1.108M2.917 11v3.804c0 1.386-1.12 2.51-2.5 2.51h19.166a2.504 2.504 0 0 1-2.5-2.51v-4.601M12.5 17.314c0 1.386-1.12 2.51-2.5 2.51a2.504 2.504 0 0 1-2.5-2.51M2 6h3L2 9h3m9-4h3l-3 3h3"/><path d="M8 9h4l-4 4h4"/></g></svg>