<svg width="13" height="13" viewBox="0 0 13 13" xmlns="http://www.w3.org/2000/svg"><path d="M12.458 1.625H8.667V.271A.271.271 0 0 0 8.396 0H4.062a.27.27 0 0 0-.27.27v1.355H.542a.271.271 0 0 0 0 .542h1.083v10.562c0 .15.121.271.27.271h8.668a.27.27 0 0 0 .27-.27V2.166h1.625a.27.27 0 0 0 0-.542zm-8.125 8.396a.27.27 0 1 1-.541 0V4.062a.271.271 0 0 1 .541.001v5.958zm0-9.48h3.792v1.084H4.333V.542zm2.167 9.48a.27.27 0 0 1-.542 0V4.062a.271.271 0 0 1 .542 0v5.959zm2.167 0a.27.27 0 0 1-.542 0V4.062a.271.271 0 0 1 .542 0v5.959z" stroke="currentColor" fill="none"/></svg>