<svg width="32" height="32" viewBox="0 0 32 32" xmlns="http://www.w3.org/2000/svg"><g fill="#0075C9" fill-rule="evenodd"><path d="M17.19 11.208a6.21 6.21 0 0 0-5.49 3.3 6.21 6.21 0 0 0-9.214-2.058V7.217a1.243 1.243 0 0 0-2.485 0v10.307h.003a6.212 6.212 0 0 0 11.698 2.81 6.213 6.213 0 1 0 5.488-9.124v-.002zm-10.977 9.94a3.726 3.726 0 1 1 0-7.453 3.726 3.726 0 0 1 0 7.453zm10.976 0a3.726 3.726 0 1 1 0-7.453 3.726 3.726 0 0 1 0 7.453z"/><path d="M31.76 21.68l-3.183-4.254 3.182-4.253a1.243 1.243 0 0 0-1.988-1.493l-2.747 3.67-2.746-3.67a1.243 1.243 0 0 0-1.988 1.492l3.18 4.254-3.18 4.253a1.243 1.243 0 0 0 1.987 1.492l2.745-3.67 2.746 3.67h.002a1.243 1.243 0 0 0 1.987-1.493z"/></g></svg>