<svg width="24" height="24" viewBox="0 0 24 24" xmlns="http://www.w3.org/2000/svg"><path fill-rule="evenodd" clip-rule="evenodd" d="M1 6.5C1 6.22614 1.22614 6 1.5 6H14.5C14.7739 6 15 6.22614 15 6.5V17.5C15 17.7739 14.7739 18 14.5 18H1.5C1.22614 18 1 17.7739 1 17.5V6.5ZM1.5 5C0.673858 5 0 5.67386 0 6.5V17.5C0 18.3261 0.673858 19 1.5 19H14.5C15.3261 19 16 18.3261 16 17.5V6.5C16 5.67386 15.3261 5 14.5 5H1.5ZM24 6.5C24 6.32671 23.9103 6.16578 23.7629 6.07467C23.6155 5.98357 23.4314 5.97529 23.2764 6.05279L17.2764 9.05279C17.107 9.13748 17 9.31061 17 9.5V14.5C17 14.6894 17.107 14.8625 17.2764 14.9472L23.2764 17.9472C23.4314 18.0247 23.6155 18.0164 23.7629 17.9253C23.9103 17.8342 24 17.6733 24 17.5V6.5ZM18 14.191V9.80902L23 7.30902V16.691L18 14.191Z"/><path d="M6.5 9.5V14.516L11.031 12L6.5 9.5Z" stroke-miterlimit="10" stroke-linecap="round" stroke-linejoin="round"/></svg>
