<svg width="22" height="22" viewBox="0 0 22 22" xmlns="http://www.w3.org/2000/svg"><path d="M9.625 0h2.75l.688 4.125 1.173.486 3.64-2.344 1.86 1.86-2.347 3.64.483 1.173L22 9.625v2.75l-4.125.688-.486 1.173 2.344 3.64-1.86 1.86-3.64-2.347-1.174.485L12.377 22h-2.75l-.688-4.125-1.174-.486-3.64 2.344-1.86-1.86 2.347-3.64-.485-1.174L0 12.377v-2.75l4.125-.688.486-1.174-2.344-3.64 1.86-1.86 3.64 2.347 1.173-.485L9.625 0zM11 6.875a4.125 4.125 0 1 0 0 8.25 4.125 4.125 0 0 0 0-8.25z" fill-rule="evenodd"/></svg>