<svg width="26" height="26" viewBox="0 0 26 26" xmlns="http://www.w3.org/2000/svg"><path d="M21.605 14.56c-.219.904-.576 2.276-1.047 3.047l2.395 2.396-2.95 2.95-2.397-2.395c-.771.471-2.142.828-3.046 1.047v3.386h-3.13v-3.386c-.904-.219-2.274-.576-3.047-1.05l-2.395 2.398-2.95-2.95 2.395-2.396c-.471-.77-.828-2.143-1.047-3.047H1v-3.13h3.386c.219-.904.576-2.274 1.047-3.046L3.037 5.989l2.951-2.95 2.396 2.394c.772-.47 2.142-.827 3.047-1.045V1h3.129v3.388c.904.218 2.274.575 3.046 1.045l2.396-2.395 2.95 2.951-2.394 2.394c.471.773.828 2.143 1.046 3.048h3.387v3.129h-3.386zm-8.411 3.328a4.694 4.694 0 1 0 0-9.388 4.694 4.694 0 0 0 0 9.388z" fill="none" stroke="currentColor"/></svg>