<svg width="28" height="32" viewBox="0 0 28 32" xmlns="http://www.w3.org/2000/svg"><g fill="none" fill-rule="evenodd"><path d="M22.002 0H3.997A4.004 4.004 0 0 0 0 4.004v23.992A3.998 3.998 0 0 0 3.997 32h20.006A4.004 4.004 0 0 0 28 27.996V7.002 10h-8V0h2.002z" fill="#1E86F0"/><path d="M14.29 17.116l-3.314-8.438H9.13l-3.315 8.438h1.682l.62-1.632h3.87l.62 1.632h1.684zm-2.72-2.935H8.536l1.518-4.02 1.518 4.03zM5 24h18v1H5v-1zm0-4h18v1H5v-1zm11-4h7v1h-7v-1zm-1-4h8v1h-8v-1zm-2-4h10v1H13V8z" fill="#FFF"/><path d="M20 0l8 10h-8V0z" fill="#136BC5"/></g></svg>