<svg width="20" height="17" viewBox="0 0 20 17" xmlns="http://www.w3.org/2000/svg"><g fill="none" fill-rule="evenodd"><path d="M0-1h20v20H0z"/><g fill-rule="nonzero" fill="currentColor"><path d="M1 4.5C1 3.81 1.56 3 2.25 3H16l-.167-.25c0-.23-.109-.75-.339-.75H6.5L5 .5a.414.414 0 0 0-.294-.122H.539a.417.417 0 0 0-.417.416L0 12.75c0 .23.187.417.417.417L1 13.25V4.5z"/><path d="M3 6c0-.69-.19-1 .5-1H18v-.583c0-.23-.687-.417-.917-.417h-15C1.853 4 2 4.187 2 4.417V14.5c0 .23-.147.333.083.333H3V6z"/><path d="M19.417 6h-15A.417.417 0 0 0 4 6.417v10.166c0 .23.187.417.417.417h15c.23 0 .416-.187.416-.417V6.417A.417.417 0 0 0 19.417 6zM8.167 7.667a.834.834 0 0 1 0 1.666.835.835 0 0 1-.834-.833c0-.46.374-.833.834-.833zM17.776 15H6.135c-.23 0-.417-.02-.417-.25s.187-.417.417-.417h.55l2.377-3.83a.418.418 0 0 1 .674-.048l1.658 1.99 1.809-3.978c.169-.371.64-.289.764.014l2.396 5.852h1.413c.23 0 .416.187.416.417 0 .23-.185.25-.416.25z"/></g></g></svg>