<svg width="32" height="32" viewBox="0 0 32 32" xmlns="http://www.w3.org/2000/svg"><path d="M16 0C7.164 0 0 7.164 0 16s7.164 16 16 16 16-7.164 16-16S24.836 0 16 0zm0 30c7.732 0 14-6.268 14-14S23.732 2 16 2 2 8.268 2 16s6.268 14 14 14zm1.443-6.664c-.036 1.27-.98 2.057-2.2 2.02-1.172-.035-2.093-.87-2.057-2.15.035-1.27 1.007-2.077 2.178-2.042 1.23.036 2.122.9 2.08 2.172zm3.478-9.093c-.3.42-.97.964-1.812 1.62l-.936.644c-.456.35-.74.764-.89 1.236-.08.25-.137.9-.15 1.336-.01.083-.06.276-.323.276h-2.794c-.293 0-.328-.17-.32-.257.042-1.187.213-2.165.706-2.95.664-1.058 2.536-2.17 2.536-2.17.285-.217.507-.445.678-.695.315-.43.572-.907.572-1.422 0-.593-.143-1.157-.522-1.628-.443-.55-.92-.815-1.843-.815-.906 0-1.434.46-1.813 1.06-.378.6-.314 1.306-.314 1.95h-3.48c0-2.43.637-3.98 1.98-4.894.907-.622 2.064-.893 3.414-.893 1.772 0 3.18.328 4.422 1.27 1.15.873 1.756 2.1 1.756 3.758 0 1.024-.357 1.88-.865 2.574z" fill-rule="evenodd"/></svg>