<svg width="32" height="32" viewBox="0 0 32 32" xmlns="http://www.w3.org/2000/svg"><path d="M16 0C7.164 0 0 7.164 0 16s7.164 16 16 16 16-7.164 16-16S24.836 0 16 0zm0 30c7.732 0 14-6.268 14-14S23.732 2 16 2 2 8.268 2 16s6.268 14 14 14zm1.443-6.664c-.036 1.27-.98 2.057-2.2 2.02-1.172-.035-2.093-.87-2.057-2.15.035-1.27 1.007-2.077 2.178-2.042 1.23.036 2.122.9 2.08 2.172zm3.478-9.093c-.3.42-.97.964-1.81 1.62l-.93.644a2.47 2.47 0 0 0-.89 1.236c-.08.25-.138.9-.15 1.336-.01.08-.06.27-.324.27H14.02c-.294 0-.33-.17-.32-.258.04-1.187.212-2.165.705-2.95.664-1.058 2.536-2.17 2.536-2.17.29-.217.51-.445.68-.695.317-.43.57-.907.57-1.42 0-.594-.14-1.158-.52-1.63-.442-.55-.92-.814-1.842-.814-.906 0-1.434.46-1.813 1.06-.376.6-.312 1.306-.312 1.95h-3.48c0-2.43.638-3.98 1.98-4.894.908-.623 2.065-.894 3.415-.894 1.773 0 3.18.33 4.423 1.27 1.15.874 1.757 2.1 1.757 3.76 0 1.023-.357 1.88-.865 2.573z" fill-rule="evenodd"/></svg>