<svg width="22" height="20" viewBox="0 0 22 20" xmlns="http://www.w3.org/2000/svg"><g fill="none" fill-rule="evenodd"><g transform="translate(1 .833)" stroke="currentColor" stroke-linejoin="round"><path d="M12.083 3.75h7.5v14.167H.417V3.75h7.5"/><circle cx="5.833" cy="11.25" r="1.667"/><path d="M5.833 12.917c-2.083 0-2.916 1.25-2.916 2.5H8.75c0-1.25-.833-2.5-2.917-2.5zm6.25-7.5H7.917V2.083A2.09 2.09 0 0 1 10 0a2.09 2.09 0 0 1 2.083 2.083v3.334zM.417 7.083h19.166m-8.75 7.5H17.5m-6.667-1.666H17.5m-6.667-1.667H17.5m-6.667-1.667h3.334"/><path d="M10.417 2.08a.417.417 0 1 1-.833 0 .417.417 0 0 1 .833 0z"/></g><path d="M1 0h20v20H1z"/></g></svg>