<svg width="22" height="22" viewBox="0 0 22 22" xmlns="http://www.w3.org/2000/svg"><g fill="none" fill-rule="evenodd"><path d="M1 1h20v20H1z"/><g transform="translate(1 1)" stroke-linecap="round" stroke="currentColor" stroke-linejoin="round"><path d="M6.016 11.25h-5.6v-2.5h5.587m5.247 5.222v5.611h-2.5v-5.611m5.222-5.222h5.611v2.5h-5.625M8.75 6.016v-5.6h2.5v5.612"/><circle cx="10" cy="10" r="4.167"/><path d="M11.25 1.34a8.756 8.756 0 0 1 7.41 7.41m-17.323 0A8.757 8.757 0 0 1 8.75 1.34m0 17.322a8.755 8.755 0 0 1-7.412-7.412m17.322 0a8.753 8.753 0 0 1-7.41 7.412"/></g></g></svg>