<svg width="28" height="32" viewBox="0 0 28 32" xmlns="http://www.w3.org/2000/svg"><g fill="none" fill-rule="evenodd"><path d="M21 0H3.997A4.004 4.004 0 0 0 0 4.004v23.992A3.998 3.998 0 0 0 3.997 32h20.006A4.004 4.004 0 0 0 28 27.996V9h-7V0z" stroke="#C3CAD2" fill="#FFF"/><path d="M12.395 20.52l-.607.604a1.36 1.36 0 0 1-1.91 0 1.313 1.313 0 0 1-.39-.94c0-.353.138-.687.39-.938l2.236-2.217c.463-.46 1.334-1.14 1.97-.51a.743.743 0 1 0 1.047-1.06c-1.07-1.07-2.67-.88-4.06.5l-2.24 2.22a2.79 2.79 0 0 0-.83 2c0 .75.3 1.46.84 1.99a2.85 2.85 0 0 0 4.005 0l.608-.61a.743.743 0 1 0-1.05-1.053zm6.773-8.613c-1.16-1.15-2.78-1.213-3.854-.148l-.757.75a.743.743 0 0 0 1.048 1.05l.757-.75c.556-.56 1.284-.33 1.76.14.252.25.39.58.39.94s-.138.68-.39.94l-2.386 2.37c-1.09 1.08-1.6.57-1.82.36a.744.744 0 1 0-1.047 1.05c.5.495 1.07.74 1.67.74.73 0 1.5-.37 2.24-1.1l2.38-2.365A2.79 2.79 0 0 0 20 13.9a2.79 2.79 0 0 0-.833-1.992z" fill="#9CA0A9"/><path d="M21 0l7 9h-7V0z" fill="#C3CAD2"/></g></svg>