<svg width="28" height="32" viewBox="0 0 28 32" xmlns="http://www.w3.org/2000/svg"><g fill="none" fill-rule="evenodd"><path d="M21 0H3.997A4.004 4.004 0 0 0 0 4.004v23.992A3.998 3.998 0 0 0 3.997 32h20.006A4.004 4.004 0 0 0 28 27.996V9h-7V0z" stroke="#C3CAD2" fill="#FFF"/><path d="M12.395 20.52l-.607.604a1.36 1.36 0 0 1-1.91 0 1.313 1.313 0 0 1-.39-.94c0-.353.138-.687.39-.938l2.236-2.217c.463-.46 1.334-1.14 1.97-.51a.743.743 0 1 0 1.047-1.058c-1.072-1.07-2.67-.873-4.06.506l-2.24 2.22A2.79 2.79 0 0 0 8 20.185c0 .754.295 1.462.832 1.994.55.545 1.276.82 2 .82.726 0 1.45-.275 2.003-.82l.608-.606a.743.743 0 1 0-1.048-1.054zm6.773-8.613c-1.16-1.15-2.78-1.213-3.854-.148l-.757.75a.743.743 0 0 0 1.048 1.05l.757-.75c.556-.554 1.284-.325 1.76.146.252.25.39.585.39.94s-.138.687-.39.94L15.736 17.2c-1.09 1.083-1.6.575-1.82.36a.744.744 0 1 0-1.047 1.055c.5.497 1.07.743 1.67.743.73 0 1.5-.37 2.24-1.1l2.382-2.366A2.79 2.79 0 0 0 20 13.9a2.79 2.79 0 0 0-.833-1.992z" fill="#9CA0A9"/><path d="M21 0l7 9h-7V0z" fill="#C3CAD2"/></g></svg>