<svg width="15" height="15" viewBox="0 0 15 15" xmlns="http://www.w3.org/2000/svg"><g fill="none" fill-rule="evenodd"><path d="M9.063 7.813l.053.053a1.25 1.25 0 0 0 1.768 0l2.478-2.477a1.882 1.882 0 0 0 0-2.652l-1.099-1.098a1.88 1.88 0 0 0-2.651 0L7.134 4.116a1.25 1.25 0 0 0 0 1.768l.053.053M5.938 7.188l-.054-.054a1.25 1.25 0 0 0-1.768 0L1.638 9.612a1.882 1.882 0 0 0 0 2.652l1.099 1.098a1.88 1.88 0 0 0 2.651 0l2.478-2.478a1.25 1.25 0 0 0 0-1.768l-.053-.053M5.07 9.93l4.86-4.86" stroke-linecap="round" stroke="currentColor" stroke-linejoin="round"/><path d="M0 0h15v15H0z"/></g></svg>