<svg width="32" height="32" viewBox="0 0 32 32" xmlns="http://www.w3.org/2000/svg"><path d="M27.174 13.88c.12-.68.184-1.38.184-2.095C27.358 5.287 22.224 0 15.914 0 9.604 0 4.47 5.287 4.47 11.785c0 .715.065 1.413.184 2.094A3.567 3.567 0 0 0 3 16.89v11.537C3 30.4 4.6 32 6.573 32h18.683a3.57 3.57 0 0 0 3.57-3.573h.003V16.89a3.564 3.564 0 0 0-1.657-3.01zM17.49 23.95v2.508a1.577 1.577 0 0 1-3.153 0v-2.51a3.274 3.274 0 0 1 1.577-6.143 3.275 3.275 0 0 1 1.577 6.145zm5.514-10.635H8.824a7.94 7.94 0 0 1-.15-1.532c0-4.18 3.25-7.58 7.24-7.58 3.992 0 7.24 3.4 7.24 7.58 0 .524-.053 1.037-.15 1.532z" fill-rule="evenodd"/></svg>