<svg width="768" height="1280" viewBox="0 0 768 1280" xmlns="http://www.w3.org/2000/svg"><path d="M464 1152c0-22-7.833-40.833-23.5-56.5-15.667-15.667-34.5-23.5-56.5-23.5s-40.833 7.833-56.5 23.5c-15.667 15.667-23.5 34.5-23.5 56.5s7.833 40.833 23.5 56.5c15.667 15.667 34.5 23.5 56.5 23.5s40.833-7.833 56.5-23.5c15.667-15.667 23.5-34.5 23.5-56.5zm208-160V288c0-8.667-3.167-16.167-9.5-22.5-6.333-6.333-13.833-9.5-22.5-9.5H128c-8.667 0-16.167 3.167-22.5 9.5-6.333 6.333-9.5 13.833-9.5 22.5v704c0 8.667 3.167 16.167 9.5 22.5 6.333 6.333 13.833 9.5 22.5 9.5h512c8.667 0 16.167-3.167 22.5-9.5 6.333-6.333 9.5-13.833 9.5-22.5zM480 144c0-10.667-5.333-16-16-16H304c-10.667 0-16 5.333-16 16s5.333 16 16 16h160c10.667 0 16-5.333 16-16zm288-16v1024c0 34.667-12.667 64.667-38 90s-55.333 38-90 38H128c-34.667 0-64.667-12.667-90-38s-38-55.333-38-90V128c0-34.667 12.667-64.667 38-90S93.333 0 128 0h512c34.667 0 64.667 12.667 90 38s38 55.333 38 90z" fill-rule="evenodd"/></svg>