<svg width="28" height="32" viewBox="0 0 28 32" xmlns="http://www.w3.org/2000/svg"><g fill="none" fill-rule="evenodd"><path d="M22.002 0H3.997A4.004 4.004 0 0 0 0 4.004v23.992A3.998 3.998 0 0 0 3.997 32h20.006A4.004 4.004 0 0 0 28 27.996V7.002 10h-8V0h2.002z" fill="#EA4C3A"/><path d="M20 0l8 10h-8V0z" fill="#C63726"/><path d="M14.54 9.183c.337.166.267.38.163 1.397-.106 1.048-.46 2.96-1.144 4.844-.69 1.88-1.7 3.727-2.59 5.094-.884 1.367-1.64 2.256-2.217 2.77-.58.513-.98.65-1.24.695-.26.045-.378 0-.45-.138-.07-.137-.093-.363-.033-.64.06-.27.2-.59.6-1 .404-.41 1.063-.912 1.984-1.38.92-.466 2.1-.9 3.068-1.196a21.572 21.572 0 0 1 2.383-.586 17.152 17.152 0 0 1 1.782-.263 10.16 10.16 0 0 1 1.63 0c.53.048 1.05.138 1.5.253.445.114.824.25 1.154.468.33.216.615.513.756.845.142.328.142.694.024.955-.12.264-.356.423-.626.515-.273.09-.58.11-.946 0-.365-.116-.79-.367-1.24-.697-.447-.33-.92-.743-1.53-1.38a27.224 27.224 0 0 1-2.01-2.348c-.635-.843-1.156-1.663-1.51-2.36a9.055 9.055 0 0 1-.696-1.833c-.153-.57-.27-1.14-.318-1.654a6.097 6.097 0 0 1 .022-1.335c.046-.362.12-.64.236-.82a.84.84 0 0 1 .4-.32c.118-.044.19-.044.26-.056.07-.012.14-.034.248 0 .103.033.24.12.376.21" stroke="#FFF" stroke-width="1.4"/></g></svg>