<svg width="13" height="13" viewBox="0 0 13 13" xmlns="http://www.w3.org/2000/svg"><path d="M.35 12.65a.268.268 0 0 0 .271.067l1.5-.462-1.377-1.377-.462 1.5a.275.275 0 0 0 .068.272zM8.125 2.056l.707-.708 2.821 2.82-.707.708zM2.708 12.075l1.278-.393-.657-.657a.275.275 0 0 1-.079-.192V9.75H2.167a.272.272 0 0 1-.192-.08l-.657-.657-.393 1.279 1.783 1.783zM9.344 4.04L3.792 9.59v1.13l.653.655 6.117-6.117zm2.414.023l.668-.668c.255-.255.395-.595.395-.958 0-.362-.14-.702-.395-.957L11.52.574a1.347 1.347 0 0 0-.959-.395c-.362 0-.702.14-.957.395l-.668.668 2.821 2.82zM2.279 9.208h1.13L8.96 3.656 7.742 2.437 1.625 8.554z" stroke="currentColor" fill="none"/></svg>