<svg width="32" height="32" viewBox="0 0 32 32" xmlns="http://www.w3.org/2000/svg"><g fill-rule="evenodd"><path d="M20.188 4.36H4.574A4.582 4.582 0 0 0 0 8.936v17.112a4.582 4.582 0 0 0 4.574 4.574h17.112a4.582 4.582 0 0 0 4.575-4.573V12.403l-2.285 2.285v11.36a2.297 2.297 0 0 1-2.29 2.288H4.576a2.297 2.297 0 0 1-2.29-2.29V8.937c0-1.26 1.033-2.29 2.29-2.29H17.9l2.286-2.285z"/><path d="M9.79 17.99L23.94 3.84a2.705 2.705 0 1 1 3.826 3.825l-14.15 14.15L9.79 17.99zm-1.912 5.74l1.148-4.972 3.824 3.825-4.972 1.148z"/></g></svg>