<svg width="12" height="12" viewBox="0 0 12 12" xmlns="http://www.w3.org/2000/svg"><g fill="none" fill-rule="evenodd"><path d="M0 0h12v12H0z"/><path d="M11.478 8.708l-1.28-1.28a1.336 1.336 0 0 0-1.891 0l-.343.343a28.424 28.424 0 0 1-3.735-3.735l.342-.343a1.339 1.339 0 0 0 0-1.89L3.291.522a1.336 1.336 0 0 0-1.89 0l-.703.702a1.946 1.946 0 0 0-.245 2.441 28.147 28.147 0 0 0 7.88 7.88c.757.501 1.78.42 2.442-.245l.703-.702a1.336 1.336 0 0 0 0-1.89z" fill="currentColor" fill-rule="nonzero"/></g></svg>