<svg width="24" height="24" viewBox="0 0 24 24" xmlns="http://www.w3.org/2000/svg"><g fill="none"><path d="M16 17.5v-3.793l4.5-4.5.646.647a.5.5 0 0 0 .707 0l2-2a.5.5 0 0 0 0-.708l-7-7a.503.503 0 0 0-.708 0l-2 2a.503.503 0 0 0 0 .708l.648.646-4.5 4.5H6.5c-.13 0-.26.053-.353.144l-1.5 1.5a.503.503 0 0 0 0 .71L8.793 14.5.146 23.145a.505.505 0 0 0 0 .71.502.502 0 0 0 .707 0L9.5 15.206l4.145 4.145a.499.499 0 0 0 .707.002l1.5-1.5a.5.5 0 0 0 .148-.355z" fill="#0080FF"/><path d="M.146 23.854a.5.5 0 0 0 .707 0L9.5 15.207l-.3-.307S.022 23.73.146 23.854z" fill="#0B69C6"/><path d="M16 17.5v-3.793l4.5-4.5.646.647a.5.5 0 0 0 .707 0l2-2a.5.5 0 0 0 0-.708l-7-7a.503.503 0 0 0-.708 0l-2 2a.503.503 0 0 0 0 .708l.648.646-4.5 4.5H6.5c-.13 0-.26.053-.353.144l-1.5 1.5a.503.503 0 0 0 0 .71L8.793 14.5l.707.707 4.145 4.145a.499.499 0 0 0 .707.002l1.5-1.5a.5.5 0 0 0 .148-.355z" fill="#B158B3"/><path d="M16 17.5v-3.793l4.5-4.5.646.647a.5.5 0 0 0 .707 0l2-2a.5.5 0 0 0 0-.708L20.5 3.8c-.195-.193-11.313 11.094-11.313 11.094l.313.313 4.145 4.145a.499.499 0 0 0 .707.002l1.5-1.5a.5.5 0 0 0 .148-.355z" fill="#99449B"/><path d="M20.5 9.207l.646.647a.5.5 0 0 0 .707 0l2-2a.5.5 0 0 0 0-.708L18.5 1.8c-.195-.193 2 7.407 2 7.407z" fill="#8C448E"/></g></svg>