<svg width="32" height="32" viewBox="0 0 32 32" xmlns="http://www.w3.org/2000/svg"><g fill="none" fill-rule="evenodd"><path d="M11.75 7.356l3.57 6.18a2.56 2.56 0 0 1 1.748.157l1.877-3.25-3.137-5.43-4.093 2.364.036-.02zm-5.38 7.996h7.14a2.546 2.546 0 0 1 1.007-1.44l-1.875-3.247H6.37v4.728-.04zm11.834 1.943c-.194.336-.453.61-.75.817l1.876 3.25h6.27v-4.686h-7.14c-.06.213-.142.42-.256.62zm-.41-3.093c.433.43.69.997.743 1.59h3.75l3.137-5.43-4.058-2.344-3.572 6.184zm-7.19 9.808l3.57-6.186a2.573 2.573 0 0 1-.74-1.588H9.68l-3.136 5.428 4.093 2.366-.033-.02zm9.615.66l-3.57-6.18a2.545 2.545 0 0 1-1.748-.156l-1.877 3.25 3.134 5.43 4.093-2.363-.034.02z" fill="#ED7D1A"/><path d="M15.986.03C7.172.03 0 7.2 0 16.01 0 24.828 7.172 32 15.986 32S31.97 24.828 31.97 16.012C31.97 7.2 24.8.03 15.986.03zm0 3.235c7.04 0 12.747 5.707 12.747 12.747 0 7.042-5.707 12.75-12.747 12.75s-12.75-5.708-12.75-12.75c0-7.04 5.71-12.747 12.75-12.747z" fill="#5282B0"/></g></svg>