<svg width="60" height="60" viewBox="0 0 60 60" xmlns="http://www.w3.org/2000/svg"><g fill="#535353" fill-rule="evenodd"><path d="M50 56H10c-3.309 0-6-2.691-6-6V10c0-3.309 2.691-6 6-6h40c3.309 0 6 2.691 6 6v40c0 3.309-2.691 6-6 6zM10 6c-2.206 0-4 1.794-4 4v40c0 2.206 1.794 4 4 4h40c2.206 0 4-1.794 4-4V10c0-2.206-1.794-4-4-4H10z"/><path d="M24 37.856a1.001 1.001 0 0 1-1-1V23a1.001 1.001 0 0 1 1.443-.896l14 6.928a1 1 0 0 1 0 1.793l-14 6.928a1 1 0 0 1-.443.103zm1-13.245v10.635l10.745-5.318L25 24.611z"/></g></svg>