<svg width="18" height="20" viewBox="0 0 18 20" xmlns="http://www.w3.org/2000/svg"><g fill="none" fill-rule="evenodd"><path d="M-1 0h20v20H-1z"/><g stroke="currentColor" stroke-linecap="round" stroke-linejoin="round"><path d="M16.78 8.077l-3.242 3.241c-1.782 1.783-4.831 1.65-6.776-.295-1.944-1.945-2.077-4.995-.294-6.777l3.24-3.241m.002.001l7.07 7.07m-5.303-5.303L13.833.417m1.179 5.891l2.357-2.356m-7.659-.59l4.712 4.715"/><circle cx="9.414" cy="8.372" r="1.25"/><path d="M7.748 11.806l-1.87 1.869-1.767-1.768 1.869-1.87m-.985 2.755l-3.83 3.83a1.666 1.666 0 1 0 2.357 2.356l2.651-2.651a1.25 1.25 0 0 1 1.769 1.767l-1.403 1.402"/></g></g></svg>