<svg width="32" height="32" viewBox="0 0 32 32" xmlns="http://www.w3.org/2000/svg"><path d="M11.397 7.658L9.394 9.46c-1.6 1.44-1.807 3.953-.465 5.63.23.42 1.372 1.76 4.01 4.394 2.632 2.634 3.97 3.777 4.464 4.06l-.083-.057c1.66 1.36 4.195 1.147 5.64-.457l1.804-2.004.38-.423-.402-.403-2.875-2.874-.366-.366-.415.307-2.066 1.528a.535.535 0 0 1-.65-.048l-4.697-4.696a.537.537 0 0 1-.047-.65l1.526-2.062.307-.416-.366-.365L12.22 7.68l-.402-.404-.423.38zm.803.89l-.825-.02 2.874 2.874-.06-.78-1.53 2.066a1.734 1.734 0 0 0 .164 2.21l4.697 4.698c.58.58 1.553.65 2.213.164l2.066-1.528-.78-.058 2.873 2.875-.02-.83-1.805 2.004c-1.02 1.13-2.827 1.283-3.988.332L18 22.5c-.07-.04-.314-.22-.776-.615-.802-.686-1.93-1.744-3.436-3.25s-2.564-2.634-3.25-3.437c-.397-.464-.58-.708-.62-.78-.997-1.258-.848-3.05.28-4.065L12.2 8.55z" fill-rule="evenodd"/></svg>