<svg width="32" height="32" viewBox="0 0 32 32" xmlns="http://www.w3.org/2000/svg"><path d="M16.746 14.768a4.692 4.692 0 0 0-5.48-6.772l-.952.293.704.7 2.945 2.945v-.848l-2.7 2.7h.848l-2.94-2.945-.704-.705-.293.95a4.692 4.692 0 0 0 7.045 5.317l-.777-.103 6.06 6.795.423.474.447-.45L23.49 21l.45-.45-.474-.42-6.842-6.105.126.74zm-1.047-.586l-.24.42.36.32 6.843 6.103-.025-.872-2.12 2.122.87.025-6.058-6.793-.344-.386-.434.287a3.492 3.492 0 0 1-5.24-3.958l-1 .246 2.946 2.945.424.424.424-.424 2.7-2.7.425-.426-.423-.424-2.944-2.944-.247.997a3.493 3.493 0 0 1 4.08 5.04z" fill-rule="evenodd"/></svg>