<svg width="32" height="32" viewBox="0 0 32 32" xmlns="http://www.w3.org/2000/svg"><g fill-rule="evenodd"><path d="M10.453 16.843a2.78 2.78 0 0 1 2.83-1.194l.536.095.15-.524a7.516 7.516 0 0 1 1.92-3.25 7.547 7.547 0 0 1 7.052-2.016l-.45-.45a7.547 7.547 0 0 1-2.016 7.057 7.516 7.516 0 0 1-3.252 1.92l-.524.15.1.536a2.78 2.78 0 0 1-1.194 2.83l.332.5.572.183a3.985 3.985 0 0 0-2.184-4.865l.305.307a3.985 3.985 0 0 0-4.86-2.183l.185.57.5.332zm-.998-.666l-.953 1.43 1.635-.525a2.785 2.785 0 0 1 3.4 1.527l.094.21.216.094a2.785 2.785 0 0 1 1.527 3.4l-.524 1.635 1.43-.953a3.98 3.98 0 0 0 1.707-4.047l-.59.11.165.578a8.716 8.716 0 0 0 3.77-2.224 8.747 8.747 0 0 0 2.337-8.176l-.086-.365-.363-.083a8.747 8.747 0 0 0-8.176 2.336 8.716 8.716 0 0 0-2.223 3.77l.578.165.11-.59a3.98 3.98 0 0 0-4.047 1.71z"/><path d="M19.174 13.278a1.677 1.677 0 1 0 2.37-2.372 1.677 1.677 0 0 0-2.37 2.372zm.848-.85a.477.477 0 1 1 .675-.673.477.477 0 0 1-.675.674zM9.448 23.706c.097-.02.267-.053.488-.102a22.726 22.726 0 0 0 1.715-.446c.83-.26 1.41-.52 1.73-.842a2.292 2.292 0 0 0-3.24-3.24c-.323.32-.583.9-.84 1.726-.06.19-.12.39-.176.597a23.55 23.55 0 0 0-.374 1.604l-.167.868.868-.166zm-.226-1.18l.702.703a22.37 22.37 0 0 1 .355-1.52c.05-.194.103-.38.16-.553.2-.643.404-1.1.542-1.24a1.092 1.092 0 0 1 1.545 1.546c-.14.137-.598.343-1.24.545-.173.054-.36.11-.552.16a22.37 22.37 0 0 1-1.518.355z"/></g></svg>