<svg width="32" height="32" viewBox="0 0 32 32" xmlns="http://www.w3.org/2000/svg"><g fill-rule="evenodd"><path d="M12.094 8.6h7.794l-.598-.55.74 8.916c.045.56-.378 1.15-.92 1.286l-3.264.813h.29l-3.262-.813c-.544-.135-.967-.726-.92-1.286l.738-8.916-.598.55zm0-1.2h-.552l-.046.55-.738 8.917c-.095 1.146.71 2.272 1.825 2.55l3.263.812.145.033.15-.037 3.262-.814c1.114-.277 1.92-1.403 1.826-2.55l-.74-8.916-.044-.55H12.1z"/><path d="M15.39 19.41v.952h1.2v-.95z"/><path d="M13.772 21.28h4.438l-.496-.264.634.934.496-.937h-5.706l.497.937.634-.934-.5.263zm0-1.2h-.317l-.18.262-.633.933-.637.938h7.972l-.637-.938-.634-.933-.178-.263h-4.756z"/><path d="M11.236 22.227h9.51l-.6-.6v2.853l.6-.6h-9.51l.6.6v-2.853l-.6.6zm0-1.2h-.6v4.053h10.71v-4.053h-10.11zm9.417-9.584l.735-.847-.453.207h2.06l-.6-.56.003.036c.01.29-.01.7-.085 1.174a6.72 6.72 0 0 1-.683 2.09 5.556 5.556 0 0 1-1.48 1.785l.744.942a6.753 6.753 0 0 0 1.797-2.167 7.89 7.89 0 0 0 .81-2.462c.09-.558.11-1.04.1-1.41l-.004-.073-.038-.56H20.66l-.178.21-.735.845.906.787zm-8.4-.788l-.735-.847-.18-.207H8.446l-.038.56-.004.078c-.013.368.01.85.1 1.41.133.842.39 1.676.806 2.46a6.753 6.753 0 0 0 1.796 2.167l.743-.942a5.556 5.556 0 0 1-1.48-1.784 6.72 6.72 0 0 1-.686-2.09 6.29 6.29 0 0 1-.084-1.18l.003-.037-.6.56h2.06l-.452-.207.738.846.906-.785zm3.46 3.155l-.746.39.87.633.143-.83.053-.31-.226-.22-.603-.59-.332 1.025.833-.12.312-.047.14-.28.372-.754h-1.08l.372.755.14.283.312.047.833.12-.332-1.025-.603.588-.226.22.052.31.14.83.87-.632-.744-.39-.28-.146-.28.147zm.557 1.06h-.558l.745.393 1.076.565-.205-1.198-.143-.83-.172.53.603-.586.87-.85-1.203-.174-.833-.12.452.327-.373-.755-.54-1.09-.54 1.09-.37.755.45-.328-.833.12-1.205.172.87.85.603.586-.173-.53-.142.83-.205 1.197 1.075-.565.745-.392z"/></g></svg>