<svg width="32" height="32" viewBox="0 0 32 32" xmlns="http://www.w3.org/2000/svg"><g fill-rule="evenodd"><path d="M15.833 25.267a9.433 9.433 0 1 0 0-18.867 9.433 9.433 0 0 0 0 18.867zm0-1.2a8.233 8.233 0 1 1 0-16.467 8.233 8.233 0 0 1 0 16.467z"/><path d="M11.4 7.833c0 3.258 3.966 5.767 8.767 5.767 1.356 0 2.67-.2 3.86-.58l-.366-1.144a11.5 11.5 0 0 1-3.49.524c-4.22 0-7.56-2.117-7.56-4.567h-1.2zM20.443 23.5c0-3.257-3.966-5.767-8.766-5.767-1.356 0-2.67.2-3.86.58l.366 1.144a11.54 11.54 0 0 1 3.494-.524c4.22 0 7.566 2.117 7.566 4.567h1.2zm3.992-5.502c-2.532-1.223-5.425-2.344-8.49-3.28-2.92-.894-5.804-1.56-8.48-1.97l-.18 1.186c2.616.4 5.444 1.055 8.31 1.93 3.007.92 5.843 2.02 8.32 3.214l.52-1.08z"/><path d="M19.245 7.466c-2.993 2.302-5.088 6.04-5.687 10.3-.338 2.403-.175 4.79.453 6.98l1.16-.33c-.58-2.03-.73-4.246-.42-6.484.56-3.954 2.49-7.41 5.23-9.514l-.73-.952z"/></g></svg>