<svg width="32" height="32" viewBox="0 0 32 32" xmlns="http://www.w3.org/2000/svg"><g fill-rule="evenodd"><path d="M23.278 10.946c.486 1.774.478 3.792-.055 5.78-.555 2.07-2.382 3.846-5.05 5.297A22.432 22.432 0 0 1 14 23.76l.587.157a20.788 20.788 0 0 1-.883-.997 22.22 22.22 0 0 1-1.864-2.594c-1.584-2.59-2.28-5.04-1.724-7.11.577-2.153 1.703-4.027 3.165-5.338l-.962-.245a7.733 7.733 0 0 0 5.3 4.867 7.737 7.737 0 0 0 6.597-1.23l-.934-.324zm1.158-.317l-.23-.846-.704.517a6.538 6.538 0 0 1-5.577 1.037 6.533 6.533 0 0 1-4.48-4.11l-.3-.845-.665.598c-1.638 1.47-2.887 3.547-3.523 5.92-.658 2.458.12 5.206 1.86 8.05a23.617 23.617 0 0 0 2.915 3.806l.248.252.34-.095a21.982 21.982 0 0 0 1.36-.453 23.53 23.53 0 0 0 3.068-1.385c2.927-1.593 4.976-3.583 5.634-6.04.587-2.192.597-4.426.054-6.408z"/><path d="M19.294 15.785c.116-.108.36-.28.7-.43a2.67 2.67 0 0 1 1.604-.196l.224-1.18a3.858 3.858 0 0 0-2.31.274 3.82 3.82 0 0 0-1.034.647l.816.88zm-3.932-1.715a3.82 3.82 0 0 0-.57-1.078 3.858 3.858 0 0 0-1.864-1.395l-.395 1.133c.54.188.966.53 1.29.972.22.3.346.57.392.722l1.147-.355zm-2.8 4.695c.373 1.04 1.31 1.87 2.486 2.184 1.17.31 2.387.07 3.23-.64l-.772-.92c-.535.45-1.347.61-2.147.397-.81-.216-1.43-.77-1.67-1.43l-1.13.404z"/></g></svg>