<svg width="32" height="32" viewBox="0 0 32 32" xmlns="http://www.w3.org/2000/svg"><g fill-rule="evenodd"><path d="M8 11.74h16l-.6-.6v9.932l.6-.6H8l.6.6v-9.93l-.6.6zm0-1.2h-.6v11.132h17.2v-11.13H8z"/><path d="M15.064 20.53l-1.543 3.69 1.11.464 1.544-3.69z"/><path d="M15.52 20.994l1.544 3.69 1.107-.463-1.54-3.69zM7.6 10c0 .057-.043.1-.1.1h17c-.06 0-.1-.04-.1-.1 0-.057.043-.1.1-.1h-17c.06 0 .1.04.1.1zm-1.2 0c0 .6.494 1.1 1.1 1.1h17c.604 0 1.1-.493 1.1-1.1 0-.6-.494-1.1-1.1-1.1h-17c-.604 0-1.1.493-1.1 1.1zm4.36 8.86c.118-.154.305-.39.503-.622l.09-.106c.124-.14.23-.255.31-.33-.02.017 0 .004-.183.004l1.813-.014h.082l1.198-.01.537-.004-.358-.115 1.13.823.503.365.348-.51 1.84-2.72-.91.1 1.59 1.513.52.497.395-.603 2.01-3.065-1.005-.66-2.008 3.066.915-.105-1.59-1.512-.512-.486-.397.585-1.84 2.72.85-.15-1.13-.823-.16-.117h-.2l-.534.005-1.198.01h-.082c-1.048.01-1.718.014-1.803.014-.36 0-.525.154-1.03.74l-.1.114a18.822 18.822 0 0 0-.54.668l.95.73z"/></g></svg>