<svg width="32" height="32" viewBox="0 0 32 32" xmlns="http://www.w3.org/2000/svg"><path d="M20.496 23.098l.423.474.448-.45 2.12-2.12.45-.45-.474-.422-6.517-5.782c.947-1.483.516-3.692-.98-5.187-1.242-1.242-3.738-1.413-4.702-1.164-.964.248-.95.293-.95.293l.703.703 2.506 2.526-1.857 1.858-2.5-2.533-.705-.705s-.203.605-.293.952c-.35 1.352-.08 3.46 1.164 4.703 1.577 1.577 3.997 1.654 5.44.91a2110.14 2110.14 0 0 0 5.722 6.393zm.453-1.292l-5.617-6.3-.344-.385-.433.284c-1.37.895-3.083.846-4.374-.458-.61-.615-1.007-1.8-1.003-2.396.692.697 2.083 2.088 2.083 2.088l.424.424.424-.424 2.7-2.7.425-.424-.424-.424-2.09-2.1a3.47 3.47 0 0 1 2.4 1.02 3.493 3.493 0 0 1 .58 4.172l-.236.42.36.32 6.366 5.688-1.24 1.196z" fill-rule="evenodd"/></svg>