<svg width="32" height="32" viewBox="0 0 32 32" xmlns="http://www.w3.org/2000/svg"><g fill="#707782" fill-rule="evenodd"><path d="M24.205 9.787l-.703.517a6.538 6.538 0 0 1-5.577 1.036 6.533 6.533 0 0 1-4.48-4.11l-.3-.844-.665.598c-1.638 1.47-2.887 3.546-3.523 5.92-.658 2.457.12 5.205 1.86 8.048a23.617 23.617 0 0 0 2.915 3.806l.248.252.34-.094a21.982 21.982 0 0 0 1.36-.453 23.529 23.529 0 0 0 3.068-1.385c2.927-1.593 4.976-3.583 5.634-6.04.587-2.192.597-4.426.054-6.408l-.23-.843zm-10.5 13.133c-.66-.796-1.3-1.67-1.865-2.595-1.584-2.59-2.28-5.04-1.724-7.11.377-1.406 1.762-3.595 2.547-4.684a7.914 7.914 0 0 0 4.952 3.97 7.767 7.767 0 0 0 4.462-.126c.76-.252 1.165-.41 1.367-.65l.06.28c.237 1.497.148 3.12-.28 4.723-.556 2.07-2.383 3.845-5.05 5.296a22.432 22.432 0 0 1-3.838 1.634c-.185-.21-.4-.46-.632-.737z"/><path d="M19.294 15.785c.116-.108.36-.28.7-.43a2.67 2.67 0 0 1 1.604-.196l.224-1.18a3.858 3.858 0 0 0-2.31.277 3.82 3.82 0 0 0-1.034.647l.816.88zm-3.932-1.715a3.82 3.82 0 0 0-.57-1.078 3.858 3.858 0 0 0-1.864-1.395l-.395 1.133c.54.188.966.53 1.29.972.22.3.346.57.392.722l1.147-.355zm-2.799 4.695c.372 1.04 1.308 1.87 2.485 2.184 1.17.313 2.387.07 3.23-.636l-.772-.92c-.535.448-1.347.61-2.147.396-.806-.215-1.43-.768-1.667-1.43l-1.13.405z"/></g></svg>