<svg width="32" height="32" viewBox="0 0 32 32" xmlns="http://www.w3.org/2000/svg" xmlns:xlink="http://www.w3.org/1999/xlink"><defs><path d="M16 6c-3.867 0-7 3.078-7 6.875 0 2.52 2.347 5.19 3.202 7.534C13.476 23.904 13.335 26 16 26c2.705 0 2.523-2.084 3.798-5.576.858-2.35 3.202-5.05 3.202-7.55C23 9.08 19.865 6 16 6zm1.65 16.985l-3.156.387c-.112-.32-.233-.695-.38-1.183l-.006-.02 3.938-.485-.168.552c-.083.28-.158.524-.23.747zm-3.727-1.418a37.022 37.022 0 0 0-.39-1.192h4.94c-.078.224-.156.45-.223.662l-4.327.53zM16 24.75c-.645 0-.94-.073-1.27-.78l2.696-.333c-.39 1.034-.675 1.113-1.426 1.113zm2.973-5.625h-5.94c-.316-.675-.697-1.35-1.072-2.01-.83-1.46-1.686-2.97-1.686-4.24 0-3.102 2.57-5.625 5.727-5.625 3.16 0 5.728 2.523 5.728 5.625 0 1.26-.86 2.78-1.69 4.247-.372.658-.75 1.332-1.064 2.003zM16 9.125c-2.106 0-3.818 1.682-3.818 3.75 0 .172.142.313.318.313.176 0 .318-.14.318-.313 0-1.723 1.428-3.125 3.182-3.125.176 0 .318-.14.318-.313a.316.316 0 0 0-.318-.31z" id="a"/></defs><use xlink:href="#a" fill-rule="evenodd"/></svg>