<?xml version="1.0" encoding="UTF-8" standalone="no"?>
<svg width="32px" height="32px" viewBox="0 0 32 32" version="1.1" xmlns="http://www.w3.org/2000/svg" xmlns:xlink="http://www.w3.org/1999/xlink">
    <!-- Generator: Sketch 3.7.2 (28276) - http://www.bohemiancoding.com/sketch -->
    <title>Artboard 1</title>
    <desc>Created with Sketch.</desc>
    <defs></defs>
    <g id="Page-1" stroke="none" stroke-width="1" fill="none" fill-rule="evenodd">
        <g id="Artboard-1" fill="#707782">
            <g id="Icon" transform="translate(6.000000, 6.000000)">
                <path d="M0.925908908,6.85867143 L0.650295505,7.65492878 L1.49290366,7.65492878 L7,7.65492878 L7.6,7.65492878 L7.6,7.05492878 L7.6,1.51211712 L7.6,0.66367227 L6.80005235,0.946413192 C4.05161888,1.91784503 1.87951981,4.10365416 0.925908908,6.85867143 L0.925908908,6.85867143 Z" id="Path"></path>
                <path d="M9.39999962,9.4 L0.4,9.4 L0.4,10 C0.4,15.3019336 4.6980664,19.6 10,19.6 C15.3019336,19.6 19.6,15.3019336 19.6,10 C19.6,4.6980664 15.3019336,0.4 10,0.4 L9.4,0.4 L9.39999962,9.39999962 L9.39999962,9.4 Z M10.6000004,1.62549678 C10.6593502,1.62549678 10.6593502,1.62549678 10.6000004,1.62549678 C14.9903558,1.96177754 18.4,5.58270623 18.4,10 C18.4,14.6391919 14.6391919,18.4 10,18.4 C5.97179426,18.4 2.60583998,15.5645644 1.63999987,10.6000004 L10,10.6 L10.6,10.6 L10.6,10 L10.6,1.63000011 L10.6000004,1.62549678 Z" id="Combined-Shape"></path>
            </g>
        </g>
    </g>
</svg>
