<svg width="32" height="32" viewBox="0 0 32 32" xmlns="http://www.w3.org/2000/svg"><g fill-rule="evenodd"><path d="M16.188 7.5A6.187 6.187 0 0 0 10 13.688c0 2.267 2.075 4.67 2.83 6.78 1.127 3.148 1.002 5.032 3.357 5.032 2.39 0 2.23-1.875 3.358-5.02.758-2.114 2.83-4.543 2.83-6.793A6.188 6.188 0 0 0 16.187 7.5zm1.457 15.287l-2.788.348a23.85 23.85 0 0 1-.337-1.065c0-.006-.004-.012-.005-.018l3.48-.434c-.05.166-.1.34-.148.496-.073.253-.14.472-.202.672zm-3.293-1.276a33.75 33.75 0 0 0-.346-1.07h4.368c-.07.2-.138.41-.198.6l-3.824.48zm1.835 2.87c-.57 0-.83-.062-1.123-.7l2.384-.3c-.345.93-.597 1.004-1.26 1.004zm2.628-5.06h-5.25a26.847 26.847 0 0 0-.948-1.81c-.734-1.312-1.492-2.67-1.492-3.813a5.068 5.068 0 0 1 5.063-5.063 5.068 5.068 0 0 1 5.062 5.063c0 1.133-.76 2.5-1.494 3.82-.33.592-.663 1.2-.94 1.802z"/><path d="M16 9.9c-1.59 0-2.952 1.22-3.565 2.95l1.13.4c.46-1.29 1.417-2.15 2.435-2.15V9.9z"/></g></svg>