<?xml version="1.0" encoding="UTF-8" standalone="no"?>
<svg width="32px" height="32px" viewBox="0 0 32 32" version="1.1" xmlns="http://www.w3.org/2000/svg" xmlns:xlink="http://www.w3.org/1999/xlink">
    <!-- Generator: Sketch 3.7.2 (28276) - http://www.bohemiancoding.com/sketch -->
    <title>Artboard 1</title>
    <desc>Created with Sketch.</desc>
    <defs></defs>
    <g id="Page-1" stroke="none" stroke-width="1" fill="none" fill-rule="evenodd">
        <g id="Artboard-1" fill="#707782">
            <g id="Group" transform="translate(16.444406, 16.151512) rotate(15.000000) translate(-16.444406, -16.151512) translate(7.944406, 6.651512)">
                <path d="M14.3488717,1.34377193 L13.8033175,2.02488706 C12.5758333,3.55738018 10.7079265,4.469406 8.68526851,4.469406 C6.4991471,4.469406 4.49841086,3.40271029 3.29383301,1.65752568 L2.78586804,0.921589305 L2.29744492,1.67063778 C1.09549711,3.5139518 0.427148868,5.84311717 0.427148868,8.30164388 C0.427148868,10.8448128 1.89076268,13.2973879 4.30609375,15.5931481 C5.13626356,16.3822203 6.02356537,17.0969015 6.91096845,17.7258578 C7.22185177,17.9461996 7.510958,18.1403549 7.77113422,18.306788 C7.92909987,18.4078376 8.04367246,18.4779637 8.10768358,18.5155954 L8.41176427,18.6943624 L8.71584495,18.5155954 C8.77985607,18.4779637 8.89442867,18.4078376 9.05239432,18.306788 C9.31257054,18.1403549 9.60167676,17.9461996 9.91256009,17.7258578 C10.7999632,17.0969015 11.687265,16.3822203 12.5174348,15.5931481 C14.9327658,13.2973879 16.3963797,10.8448128 16.3963797,8.30164388 C16.3963797,6.03204682 15.8272007,3.87089382 14.7895113,2.0970209 L14.3488717,1.34377193 Z M7.60486778,16.7468258 C6.76150162,16.1490811 5.9180342,15.4697065 5.13281939,14.7233638 C2.93276583,12.6322238 1.62714887,10.4444037 1.62714887,8.30164388 C1.62714887,6.84576566 2.39840119,4.37263149 2.87544087,3.11757765 C4.35763373,4.71583594 6.44034556,5.669406 8.68526851,5.669406 C10.2398581,5.669406 11.7189118,5.21253051 12.9629551,4.39368785 C13.6313622,3.95373513 13.9816914,3.69520979 14.1148622,3.41047615 L14.246302,3.6653192 C14.8623217,5.05112465 15.1963797,6.64137516 15.1963797,8.30164388 C15.1963797,10.4444037 13.8907627,12.6322238 11.6907091,14.7233638 C10.9054943,15.4697065 10.0620269,16.1490811 9.21866076,16.7468258 C8.92377485,16.9558293 8.65038108,17.1394325 8.4057496,17.2959217 C8.17314746,17.1394325 7.89975368,16.9558293 7.60486778,16.7468258 Z" id="Combined-Shape"></path>
                <path d="M11.1572983,8.40817833 C11.2416359,8.27424004 11.433335,8.04463738 11.7230403,7.81201712 C12.1511255,7.46828411 12.6492059,7.24909506 13.2205589,7.20713165 L13.1326608,6.01035517 C12.3004,6.07148114 11.5783437,6.38923475 10.9717217,6.8763247 C10.5662107,7.20193163 10.2918366,7.53055616 10.1418397,7.76876934 L11.1572983,8.40817833 L11.1572983,8.40817833 Z" id="Path-1963"></path>
                <path d="M6.91527752,7.76876934 C6.76528062,7.53055616 6.49090647,7.20193163 6.08539551,6.8763247 C5.47877356,6.38923475 4.75671722,6.07148114 3.9244564,6.01035517 L3.83655833,7.20713165 C4.40791129,7.24909506 4.9059917,7.46828411 5.33407687,7.81201712 C5.62378221,8.04463738 5.81548133,8.27424004 5.89981893,8.40817833 L6.91527752,7.76876934 L6.91527752,7.76876934 Z" id="Path-1963"></path>
                <path d="M5.42758662,13.0287652 C6.05603617,13.9376095 7.1742997,14.4957935 8.39332792,14.4957935 C9.60429588,14.4957935 10.7160991,13.9450087 11.3470416,13.04603 L10.3648148,12.3566604 C9.96371118,12.9281603 9.22161418,13.2957935 8.39332792,13.2957935 C7.55972625,13.2957935 6.81367906,12.9234022 6.41459849,12.3462642 L5.42758662,13.0287652 L5.42758662,13.0287652 Z" id="Oval-830"></path>
            </g>
        </g>
    </g>
</svg>
