<svg width="32" height="32" viewBox="0 0 32 32" xmlns="http://www.w3.org/2000/svg"><g fill-rule="evenodd"><path d="M21.488 14.877v4.562l.287-.52a4.74 4.74 0 0 1-.364.19 9.8 9.8 0 0 1-1.12.453 12.92 12.92 0 0 1-4.16.67 12.92 12.92 0 0 1-4.162-.67 10.01 10.01 0 0 1-1.124-.455 4.74 4.74 0 0 1-.364-.19l.29.512v-4.56h-1.2v4.898l.285.176c.326.198.91.48 1.73.758 1.35.46 2.877.734 4.55.734 1.67 0 3.2-.276 4.55-.735.82-.273 1.404-.56 1.727-.752l.29-.177v-4.9h-1.2z"/><path d="M7.898 12.82c.09.047.09.382 0 .428l7.787-3.99c.173-.088.53-.088.702 0l7.787 3.99c-.09-.046-.09-.382 0-.428l-7.787 3.99c-.173.088-.53.088-.702 0l-7.787-3.99zm-.547 1.068l7.79 3.99c.52.264 1.28.264 1.8 0l7.79-3.99c.78-.4.78-1.308 0-1.708l-7.79-3.99c-.516-.264-1.28-.264-1.796 0l-7.79 3.99c-.777.4-.78 1.308 0 1.708z"/><path d="M19.4 15.58v6.315h1.2V15.58zM20 26.1a2.1 2.1 0 1 0 0-4.2 2.1 2.1 0 0 0 0 4.2zm0-1.2a.9.9 0 1 1 0-1.8.9.9 0 0 1 0 1.8z"/></g></svg>