<svg width="32" height="32" viewBox="0 0 32 32" xmlns="http://www.w3.org/2000/svg"><g fill-rule="evenodd"><path d="M24.1 18.233a5.185 5.185 0 0 0-7.173-7.484l.807.884a3.985 3.985 0 0 1 5.512 5.752l.853.845z"/><path d="M11.05 21.284a3.306 3.306 0 1 1 .18-6.592l.48.046.15-.456c.52-1.57 2.047-2.663 3.8-2.663 2.206 0 3.985 1.71 3.985 3.81v.005l.63.6a2.626 2.626 0 1 1 .277 5.246l-.715.037.162.697v.005l.582-.137v-.6h-9.51v.6l.574.175v-.004l.247-.81-.846.036zm.052 1.2l-.025-.6-.574-.176-.002.004-.23.775h11.07l-.17-.736h-.002l-.584.135.03.6a3.827 3.827 0 1 0-.4-7.643l.03.6h.6v-.005c0-2.775-2.325-5.015-5.184-5.015-2.27 0-4.258 1.42-4.94 3.485l.57.188.06-.597a4.506 4.506 0 1 0-.246 8.986H11.1z"/><path d="M8.758 16.98a3.147 3.147 0 0 0 3.148 3.148v-1.2a1.947 1.947 0 0 1-1.948-1.947h-1.2z"/></g></svg>