<?xml version="1.0" encoding="UTF-8" standalone="no"?>
<svg width="32px" height="32px" viewBox="0 0 32 32" version="1.1" xmlns="http://www.w3.org/2000/svg" xmlns:xlink="http://www.w3.org/1999/xlink">
    <!-- Generator: Sketch 3.7.2 (28276) - http://www.bohemiancoding.com/sketch -->
    <title>Artboard 1</title>
    <desc>Created with Sketch.</desc>
    <defs></defs>
    <g id="Page-1" stroke="none" stroke-width="1" fill="none" fill-rule="evenodd">
        <g id="Artboard-1" fill="#000000">
            <g id="Rocket" transform="translate(16.253048, 16.253048) rotate(45.000000) translate(-16.253048, -16.253048) translate(10.753048, 5.253048)">
                <path d="M9.05140791,12.0112163 C9.61167802,10.8429418 9.90769231,9.55777886 9.90769231,8.23076923 C9.90769231,5.172513 8.32624471,2.38526955 5.77896039,0.797232773 L5.4615385,0.599344529 L5.1441166,0.797232736 C2.59683246,2.38526898 1.01538462,5.17251277 1.01538462,8.23076923 C1.01538462,9.73347669 1.16539562,10.7205125 1.87845631,12.006928 C1.84809489,12.0381484 1.81315429,12.0707138 1.77873299,12.103954 C0.791149969,13.0576519 0.375625023,14.4325877 0.639418666,15.7536882 L0.97574001,17.4380135 L1.76135999,15.9106416 C1.88492917,15.6704032 2.04389402,15.4480738 2.23590245,15.2492433 C3.021284,14.4359569 4.20852649,14.1852667 5.24511279,14.5861622 L5.46153846,14.6698639 L5.67796414,14.5861622 C6.71455043,14.1852667 7.90179292,14.4359569 8.68717449,15.2492433 C8.8791829,15.4480738 9.03814775,15.6704032 9.16171693,15.9106416 L9.94733691,17.4380135 L10.2836583,15.7536882 C10.5474519,14.4325877 10.131927,13.0576519 9.14434391,12.103954 L9.05140791,12.0112163 Z M8.70769231,8.23076923 C8.70769231,9.52862502 8.3804968,10.7776643 7.76549534,11.8871735 L7.50126465,12.3638657 L7.95045054,12.6725489 C8.07752933,12.7598782 8.19794324,12.8582218 8.31075385,12.9671618 L8.9509254,13.90025 C7.9065646,13.1623594 6.62841352,12.996664 5.48515837,13.3995192 C5.46117285,13.3923911 5.43989376,13.3860395 5.41852446,13.3799038 C5.39822042,13.3740739 5.37783493,13.3684389 5.35737179,13.3629972 C5.33742839,13.3577285 5.32350307,13.3541522 5.30954338,13.3506643 C5.27577634,13.3422274 5.24180818,13.3343072 5.20765564,13.3268968 C4.09855532,13.0862447 2.79499286,13.3831557 1.86969516,13.9743024 L1.84341171,13.984531 C1.94176964,13.5751738 2.71521084,12.9234392 2.93734699,12.7166674 C3.15948313,12.5098957 3.39374678,12.3419233 3.39374678,12.3419233 L3.15758158,11.8871735 C2.54258012,10.7776643 2.21538462,9.52862502 2.21538462,8.23076923 C2.21538462,6.19832367 3.05970097,3.85137659 5.46033354,2.02681524 C7.47454169,3.42411737 8.70769231,5.72112267 8.70769231,8.23076923 Z" id="Combined-Shape"></path>
                <path d="M5.46153846,6.83076923 C6.3876775,6.83076923 7.13846154,6.0799852 7.13846154,5.15384615 C7.13846154,4.22770711 6.3876775,3.47692308 5.46153846,3.47692308 C4.53539942,3.47692308 3.78461538,4.22770711 3.78461538,5.15384615 C3.78461538,6.0799852 4.53539942,6.83076923 5.46153846,6.83076923 L5.46153846,6.83076923 Z M5.46153846,5.63076923 C5.19814112,5.63076923 4.98461538,5.4172435 4.98461538,5.15384615 C4.98461538,4.89044881 5.19814112,4.67692308 5.46153846,4.67692308 C5.7249358,4.67692308 5.93846154,4.89044881 5.93846154,5.15384615 C5.93846154,5.4172435 5.7249358,5.63076923 5.46153846,5.63076923 L5.46153846,5.63076923 Z" id="Oval-25"></path>
                <path d="M5.95783853,21.0823132 C6.01369071,21.0001021 6.10926797,20.8556476 6.23146412,20.6645343 C6.43474433,20.3466064 6.63806147,20.0136489 6.82849757,19.6807507 C6.93546318,19.4937659 7.03549999,19.3116813 7.1273694,19.1358509 C7.52828058,18.3685405 7.75384615,17.7748443 7.75384615,17.3195266 C7.75384615,16.05352 6.72754503,15.0272189 5.46153846,15.0272189 C4.19553189,15.0272189 3.16923077,16.05352 3.16923077,17.3195266 C3.16923077,17.7748443 3.39479634,18.3685405 3.79570752,19.1358509 C3.88757693,19.3116813 3.98761374,19.4937659 4.09457935,19.6807507 C4.28501546,20.0136489 4.48833259,20.3466064 4.6916128,20.6645343 C4.81380896,20.8556476 4.90938621,21.0001021 4.96523839,21.0823132 L5.46153846,21.8128376 L5.95783853,21.0823132 Z M4.85928211,18.580145 C4.54791651,17.9842173 4.36923077,17.5139104 4.36923077,17.3195266 C4.36923077,16.7162617 4.85827359,16.2272189 5.46153846,16.2272189 C6.06480333,16.2272189 6.55384615,16.7162617 6.55384615,17.3195266 C6.55384615,17.5139104 6.37516041,17.9842173 6.06379481,18.580145 C5.97936021,18.7417457 5.88660214,18.9105818 5.78688704,19.0848921 C5.68752641,19.2585827 5.58402234,19.4329923 5.47865888,19.605329 C5.47865888,19.605329 4.94371671,18.7417457 4.85928211,18.580145 Z" id="Combined-Shape"></path>
            </g>
        </g>
    </g>
</svg>
