<svg width="32" height="32" viewBox="0 0 32 32" xmlns="http://www.w3.org/2000/svg"><g fill-rule="evenodd"><path d="M23.993 20.786a7.993 7.993 0 0 0-15.986 0v.6h15.986v-.6zm-1.2 0l.6-.6H8.607l.6.6a6.793 6.793 0 0 1 13.586 0z"/><path d="M14.682 15.49a6.728 6.728 0 0 0-3.67 3.274l1.07.54a5.528 5.528 0 0 1 3.015-2.688l-.415-1.126zm1.478-1.497a1.725 1.725 0 1 0 0-3.45 1.725 1.725 0 0 0 0 3.45zm0-1.2a.525.525 0 1 1 0-1.05.525.525 0 0 1 0 1.05zm-.745-7.363c-.168.055-.39.16-.618.332-.767.58-.96 1.502-.227 2.533.395.557.384.804.216.975a.45.45 0 0 1-.085.07l.49 1.095a1.51 1.51 0 0 0 .457-.325c.586-.6.626-1.493-.096-2.51-.34-.478-.3-.677-.03-.88.108-.08.218-.132.27-.15l-.373-1.14zM25 22.4H7v1.2h18z"/></g></svg>