<svg width="32" height="32" viewBox="0 0 32 32" xmlns="http://www.w3.org/2000/svg"><path d="M9.394 9.46c-1.6 1.44-1.807 3.953-.465 5.63.23.42 1.375 1.76 4.01 4.394 2.635 2.634 3.97 3.777 4.467 4.06l-.083-.057c1.66 1.36 4.194 1.147 5.638-.457l1.804-2.004.38-.423-.402-.403-2.875-2.874-.366-.366-.416.307-2.066 1.528a.535.535 0 0 1-.65-.048l-4.696-4.696a.537.537 0 0 1-.047-.65l1.526-2.065.307-.416-.365-.366-2.875-2.875-.402-.403-.423.38L9.392 9.46zM22.07 22.228c-1.018 1.13-2.825 1.283-3.986.332L18 22.5c-.07-.04-.314-.22-.776-.615-.802-.686-1.93-1.744-3.436-3.25s-2.564-2.634-3.25-3.437c-.397-.464-.58-.708-.62-.78-.997-1.258-.848-3.05.28-4.065l1.56-1.427 2.118 2.105-1.212 1.658s-.416 1.632.163 2.21l4.697 4.698c.58.58 1.552.65 2.212.164l1.638-1.213 2.128 2.13-1.432 1.55z" fill-rule="evenodd"/></svg>