<svg width="32" height="32" viewBox="0 0 32 32" xmlns="http://www.w3.org/2000/svg"><path d="M10.515 6.163H1.157a1.164 1.164 0 0 0 0 2.325H9.09c.378-.837.858-1.617 1.425-2.325zm-2.333 5.814H1.157a1.164 1.164 0 0 0 0 2.325h7.068a10.95 10.95 0 0 1-.043-2.325zm1.102 5.814H1.157a1.164 1.164 0 0 0 0 2.328h9.7c-.62-.7-1.15-1.482-1.573-2.326zm7.75 5.816H1.164c-.636 0-1.165.52-1.165 1.163 0 .645.52 1.162 1.162 1.162h17.442c.634 0 1.163-.52 1.163-1.162 0-.42-.22-.787-.552-.99a11.053 11.053 0 0 1-2.183-.173zm7.13-3.532a8.305 8.305 0 0 1-13.12-6.77A8.305 8.305 0 1 1 26.12 18.12l5.456 5.458a1.362 1.362 0 0 1 0 1.93l-.023.024a1.367 1.367 0 0 1-1.93 0l-5.458-5.456zm-4.813-.417a6.35 6.35 0 1 0 0-12.702 6.35 6.35 0 0 0 0 12.702z" fill-rule="evenodd"/></svg>