<svg width="32" height="32" viewBox="0 0 32 32" xmlns="http://www.w3.org/2000/svg"><path d="M30.645 19.398c.228-1.043.347-2.12.347-3.23 0-8.31-6.737-15.047-15.048-15.047-.877 0-1.736.078-2.575.22A8.673 8.673 0 0 0 8.726 0a8.728 8.728 0 0 0-7.53 13.142c-.2.977-.303 1.99-.303 3.026 0 8.312 6.736 15.05 15.048 15.05.942 0 1.862-.088 2.755-.253a8.726 8.726 0 0 0 12.852-7.692 8.685 8.685 0 0 0-.906-3.875zm-6.983 3.962c-.695.984-1.724 1.765-3.058 2.32-1.32.548-2.902.826-4.7.826-2.163 0-3.976-.38-5.39-1.13a7.03 7.03 0 0 1-2.478-2.2c-.638-.92-.962-1.835-.962-2.718 0-.55.21-1.03.627-1.42.415-.388.94-.585 1.573-.585.517 0 .964.154 1.326.46.345.295.64.73.88 1.29.268.613.558 1.128.865 1.532.296.392.72.72 1.262.977.546.258 1.282.39 2.186.39 1.244 0 2.265-.266 3.032-.79.75-.51 1.112-1.126 1.112-1.877 0-.594-.19-1.06-.58-1.428-.41-.384-.95-.68-1.606-.886a32.17 32.17 0 0 0-2.76-.682c-1.562-.334-2.89-.73-3.943-1.18-1.08-.46-1.95-1.096-2.586-1.89-.645-.81-.973-1.824-.973-3.017 0-1.136.344-2.162 1.022-3.044.67-.878 1.655-1.56 2.92-2.028 1.25-.462 2.734-.696 4.416-.696 1.344 0 2.524.158 3.51.463.994.308 1.83.726 2.486 1.24.662.516 1.156 1.068 1.465 1.644.31.58.47 1.156.47 1.714 0 .54-.208 1.027-.618 1.454a2.07 2.07 0 0 1-1.547.645c-.555 0-.992-.136-1.295-.4-.28-.253-.573-.64-.898-1.2-.375-.71-.83-1.273-1.35-1.67-.507-.385-1.352-.58-2.514-.58-1.078 0-1.956.217-2.607.646-.628.41-.934.88-.934 1.44 0 .344.1.63.302.876.214.263.516.49.896.682.396.2.806.357 1.213.47.418.116 1.12.287 2.082.51a35.3 35.3 0 0 1 3.326.87c1.003.322 1.867.716 2.575 1.177.72.47 1.29 1.07 1.698 1.79.406.724.612 1.615.612 2.652a5.7 5.7 0 0 1-1.054 3.356z" fill-rule="evenodd"/></svg>