<svg width="12" height="11" viewBox="0 0 12 11" xmlns="http://www.w3.org/2000/svg"><g fill="none" fill-rule="evenodd"><path d="M0 0h12v12H0z"/><path d="M5.55.904c.249-.5.648-.504.899 0l.957 1.926c.248.5.892.968 1.431 1.046l2.18.315c.543.078.662.453.264.838L9.718 6.543c-.396.385-.642 1.136-.547 1.69l.366 2.118c.094.548-.226.786-.708.534l-1.95-1.02c-.486-.253-1.276-.251-1.758 0l-1.95 1.02c-.485.253-.802.02-.707-.534l.365-2.118c.095-.548-.15-1.304-.547-1.69L.719 5.03c-.397-.384-.275-.76.264-.838l2.18-.315c.543-.078 1.182-.541 1.432-1.046L5.55.904z" fill="currentColor"/></g></svg>