<svg width="1664" height="1587" viewBox="0 0 1664 1587" xmlns="http://www.w3.org/2000/svg"><path d="M1664 615c0 14.667-8.667 30.667-26 48l-363 354 86 500c.667 4.667 1 11.333 1 20 0 14-3.5 25.833-10.5 35.5-7 9.667-17.167 14.5-30.5 14.5-12.667 0-26-4-40-12l-449-236-449 236c-14.667 8-28 12-40 12-14 0-24.5-4.833-31.5-14.5S301 1551 301 1537c0-4 .667-10.667 2-20l86-500L25 663C8.333 645 0 629 0 615c0-24.667 18.667-40 56-46l502-73L783 41c12.667-27.333 29-41 49-41s36.333 13.667 49 41l225 455 502 73c37.333 6 56 21.333 56 46z"/></svg>