<svg width="24" height="24" viewBox="0 0 24 24" xmlns="http://www.w3.org/2000/svg"><g fill="none" fill-rule="evenodd"><path d="M0 0h24v24H0z"/><path d="M11.51 1.398c.247-.496.645-.498.892 0l2.805 5.646c.247.496.89.962 1.426 1.04l6.301.91c.542.078.66.452.26.84l-4.537 4.395c-.399.386-.646 1.139-.551 1.686l1.07 6.206c.095.545-.226.779-.72.52l-5.608-2.93c-.492-.257-1.289-.258-1.783 0l-5.605 2.93c-.492.258-.815.027-.72-.52l1.069-6.206c.094-.545-.151-1.298-.551-1.686L.72 9.834c-.398-.386-.277-.763.26-.84l6.302-.91c.541-.079 1.178-.542 1.425-1.04l2.803-5.646z" stroke="currentColor" stroke-linejoin="round"/></g></svg>