<svg width="25" height="24" viewBox="0 0 25 24" xmlns="http://www.w3.org/2000/svg"><path d="M11.596 1.285c.246-.495.645-.497.892 0l2.805 5.647c.246.496.89.962 1.426 1.04l6.3.91c.542.077.66.452.26.84l-4.537 4.395c-.398.386-.645 1.139-.55 1.685l1.07 6.207c.094.545-.227.779-.721.52l-5.608-2.93c-.492-.257-1.288-.258-1.782 0l-5.605 2.93c-.492.258-.815.027-.721-.52l1.07-6.207c.093-.544-.152-1.298-.552-1.685L.807 9.722c-.399-.386-.277-.763.259-.84l6.302-.91c.541-.08 1.179-.543 1.426-1.04l2.802-5.647z" fill="none" stroke="currentColor"/></svg>