<svg width="32" height="32" viewBox="179 629 32 32" xmlns="http://www.w3.org/2000/svg"><g fill-rule="evenodd"><path d="M198.738 660.954a.61.61 0 0 1-.433-.18l-18.816-18.859a.625.625 0 0 1-.182-.44v-11.713a.62.62 0 0 1 .616-.622h11.6c.162 0 .317.065.433.18l18.815 18.86a.626.626 0 0 1 .002.88l-11.6 11.712a.612.612 0 0 1-.435.182zm-16.707-20.086l16.578 16.615 8.89-8.985-16.576-16.615h-8.892v8.985z"/><path d="M187.792 641.394a3.619 3.619 0 0 1-2.587-1.082 3.726 3.726 0 0 1 0-5.225 3.618 3.618 0 0 1 2.587-1.082c.978 0 1.897.384 2.588 1.082a3.726 3.726 0 0 1 0 5.225 3.619 3.619 0 0 1-2.588 1.082zm-.023-5.552c-.483 0-.936.19-1.277.535a1.84 1.84 0 0 0 0 2.58c.341.344.795.533 1.277.533.483 0 .936-.19 1.277-.534a1.84 1.84 0 0 0 0-2.58 1.788 1.788 0 0 0-1.277-.534z"/></g></svg>