<svg width="32" height="32" viewBox="179 629 32 32" xmlns="http://www.w3.org/2000/svg"><g fill-rule="evenodd"><path d="M198.62 660.954a.617.617 0 0 1-.436-.18l-18.997-18.943a.626.626 0 0 1-.183-.442v-11.764a.624.624 0 0 1 .622-.625h11.71c.164 0 .32.065.438.18l18.995 18.944a.626.626 0 0 1 .002.884l-11.71 11.763a.62.62 0 0 1-.44.183zm-16.866-20.174l16.737 16.688 8.975-9.025-16.735-16.688h-8.977v9.025z"/><path d="M187.57 641.394a3.671 3.671 0 0 1-2.612-1.082 3.7 3.7 0 0 1 0-5.225 3.67 3.67 0 0 1 2.612-1.082 3.67 3.67 0 0 1 2.613 1.082 3.7 3.7 0 0 1 0 5.225 3.671 3.671 0 0 1-2.613 1.082zm-1.312-5.017a1.828 1.828 0 0 0 0 2.58 1.81 1.81 0 0 0 1.289.533c.487 0 .945-.19 1.289-.534.71-.716.71-1.864 0-2.58a1.814 1.814 0 0 0-1.29-.534c-.487 0-.944.19-1.288.535z"/></g></svg>