<svg width="32" height="32" viewBox="0 0 32 32" xmlns="http://www.w3.org/2000/svg"><defs><linearGradient x1="50%" y1="0%" x2="50%" y2="100%" id="a"><stop stop-color="#0091E6" offset="0%"/><stop stop-color="#0079BF" offset="100%"/></linearGradient></defs><path d="M4.004 0A4.002 4.002 0 0 0 0 4.004v23.992C0 30.206 1.79 32 4.004 32h23.992C30.206 32 32 30.21 32 27.996V4.004C32 1.794 30.21 0 27.996 0H4.004zm15.998 4.16a1.92 1.92 0 0 0-1.922 1.92v10.24c0 1.06.858 1.92 1.922 1.92h5.916a1.92 1.92 0 0 0 1.922-1.92V6.08a1.92 1.92 0 0 0-1.922-1.92h-5.916zm-13.92 0A1.92 1.92 0 0 0 4.16 6.08v18.24c0 1.06.858 1.92 1.922 1.92h5.916a1.92 1.92 0 0 0 1.922-1.92V6.08a1.92 1.92 0 0 0-1.922-1.92H6.082z" fill="url(#a)" fill-rule="evenodd"/></svg>