<svg width="24" height="20" viewBox="0 0 24 20" xmlns="http://www.w3.org/2000/svg"><g fill-rule="evenodd"><path d="M15.343 9.144a5 5 0 1 0-6.83.017 9.263 9.263 0 0 1 6.83-.017zM11.92 9.5c-1.278 0-2.495.27-3.595.75a9.025 9.025 0 0 0-5.343 7.25c0 1.105.833 2 1.937 2h14c1.104 0 1.937-.895 1.937-2a9.027 9.027 0 0 0-5.344-7.25 8.955 8.955 0 0 0-3.594-.75z"/><path d="M5.048 9.732c-.286.08-.564.18-.832.303A7.16 7.16 0 0 0 .05 15.792c0 .867.648 1.577 1.51 1.577h.622c.583-3.464 2.656-6.363 5.473-7.864a8.144 8.144 0 0 0-.13-.01A5.978 5.978 0 0 1 6 5.5c0-1.14.318-2.204.87-3.112-2.085.08-3.75 1.813-3.75 3.94a3.95 3.95 0 0 0 1.928 3.404zm13.904 0c.286.08.564.18.832.303a7.16 7.16 0 0 1 4.167 5.757c0 .867-.648 1.577-1.51 1.577h-.622c-.583-3.464-2.656-6.363-5.473-7.864l.13-.01A5.978 5.978 0 0 0 18 5.5c0-1.14-.318-2.204-.87-3.112 2.085.08 3.75 1.813 3.75 3.94a3.95 3.95 0 0 1-1.928 3.404z" fill-opacity=".5"/></g></svg>