<svg width="19" height="18" viewBox="0 0 19 18" xmlns="http://www.w3.org/2000/svg"><g fill="none" fill-rule="evenodd"><path d="M0 0h20v20H0z"/><g fill-rule="nonzero" fill="currentColor"><path d="M5.44 4.294c1.034 0 2.263-.606 2.628-1.297a.397.397 0 0 1 .343-.21c.18.011.28.073.352.197.675 1.167 1.388 1.536 2.536 1.317.026-.005.75-.19 1.201-.301 0-3.087-2-4-5-4-2.01 0-3.29 1.6-3.787 3.763.715.434 1.223.531 1.727.531z"/><path d="M11 11.046h-.5V9.325c1.19-.907 2.083-2.41 2-4.249-.664.23-1.554.067-1.786.067C9.769 5.142 9.13 4.867 8.5 4c-.676.7-1.973 1.075-3.06 1.075-.62 0-1.217-.195-1.94-.575-.145 2.174.81 3.916 2 4.824v1.722l-3.663 1.305A2.742 2.742 0 0 0 0 14.924V16.5c0 .216.282.5.5.5H11v-5.954z"/></g><path d="M18.5 9h-6c-.218 0-.5.284-.5.5v8c0 .216.282.5.5.5h6c.218 0 .5-.284.5-.5v-8c0-.216-.282-.5-.5-.5zm-2 7h-3c-.218 0-.5-.284-.5-.5 0-.216.282-.5.5-.5h3c.218 0 .5.284.5.5 0 .216-.282.5-.5.5zm1-2h-4c-.218 0-.5-.284-.5-.5 0-.216.282-.5.5-.5h4c.218 0 .5.284.5.5 0 .216-.282.5-.5.5zm0-2h-4c-.218 0-.5-.284-.5-.5 0-.216.282-.5.5-.5h4c.218 0 .5.284.5.5 0 .216-.282.5-.5.5z" fill="currentColor" fill-rule="nonzero"/></g></svg>