<svg width="21" height="17" viewBox="0 0 21 17" xmlns="http://www.w3.org/2000/svg"><g fill="none" fill-rule="evenodd"><path d="M0-1h20v20H0z"/><g stroke="currentColor" stroke-linejoin="round"><path d="M6.5 16.5l6-.083v-3.75c0-.417-2.083-1.667-4.167-2.5V8.5s.834-.292.834-2.083c.579 0 .833-1.667.026-1.667 0-.177.639-1.09.39-2.083C9.167 1 5 1 4.583 2.667c-1.754-.36-.416 1.843-.416 2.083-.834 0-.58 1.667 0 1.667C4.167 8.208 5 8.5 5 8.5v1.667C2.917 11 .5 12.083.5 12.5v4h6z"/><path d="M15 16.5h4.583v-3.833c0-.417-2.083-1-3.75-1.667V9.75s.834-.233.834-1.667c.464 0 1.478-1.666.833-1.666 0-.141-.24-1.14-.5-1.917-.417-1.25-3.667-1.25-4.083 0-1.405-.288-.417 1.725-.417 1.917-.667 0-.464 1.666 0 1.666 0 1.434.833 1.667.833 1.667v.833" stroke-linecap="round"/></g></g></svg>