<svg width="24" height="20" viewBox="0 0 24 20" xmlns="http://www.w3.org/2000/svg"><g fill="#707782" fill-rule="evenodd"><path d="M15.343 9.144a5 5 0 1 0-6.83.017 9.262 9.262 0 0 1 6.83-.015zM11.92 9.5c-1.278 0-2.495.27-3.595.75a9.025 9.025 0 0 0-5.343 7.25c0 1.105.833 2 1.937 2h14c1.102 0 1.935-.895 1.935-2a9.027 9.027 0 0 0-5.344-7.25 8.955 8.955 0 0 0-3.593-.75z"/><path d="M6.49 10.236c-1.903-.26-3.37-1.91-3.37-3.908 0-2.127 1.665-3.86 3.75-3.94A5.972 5.972 0 0 0 6 5.5a5.98 5.98 0 0 0 1.573 4.05 9.845 9.845 0 0 0-1.082.686z"/><path d="M2.182 17.37H1.56c-.862 0-1.51-.71-1.51-1.578a7.16 7.16 0 0 1 4.166-5.757c.857-.394 1.806-.552 2.802-.552.215 0 .427.007.637.023-2.817 1.5-4.89 4.4-5.473 7.863zm15.328-7.134c1.903-.26 3.37-1.91 3.37-3.908 0-2.127-1.665-3.86-3.75-3.94A5.97 5.97 0 0 1 18 5.5a5.98 5.98 0 0 1-1.573 4.05 9.77 9.77 0 0 1 1.082.686z"/><path d="M21.818 17.37h.622c.862 0 1.51-.71 1.51-1.578a7.16 7.16 0 0 0-4.166-5.757c-.857-.394-1.806-.552-2.802-.552a8.68 8.68 0 0 0-.637.023c2.817 1.5 4.89 4.4 5.473 7.863z"/></g></svg>