<svg width="22" height="17" viewBox="0 0 22 17" xmlns="http://www.w3.org/2000/svg"><path d="M7.6 16.417h6.317v-3.75c0-.417-2.5-1.667-4.584-2.5V8.5s.834-.292.834-2.083c.579 0 .833-1.667.026-1.667 0-.177.639-1.09.39-2.083C10.167 1 6 1 5.583 2.667c-1.754-.36-.416 1.843-.416 2.083-.834 0-.58 1.667 0 1.667C5.167 8.208 6 8.5 6 8.5v1.667c-2.083.833-4.583 2.083-4.583 2.5v3.75h6.182zm8.4 0h4.583v-3.75c0-.417-2.083-1-3.75-1.667V9.75s.834-.233.834-1.667c.464 0 .645-1.666 0-1.666 0-.141.675-.89.416-1.667-.416-1.25-3.75-1.25-4.166 0-1.405-.288-.417 1.475-.417 1.667-.667 0-.464 1.666 0 1.666 0 1.434.833 1.667.833 1.667v.833" fill="none" stroke="currentColor"/></svg>