<svg width="28" height="32" viewBox="0 0 28 32" xmlns="http://www.w3.org/2000/svg"><g fill="none" fill-rule="evenodd"><path d="M21 0H3.997A4.004 4.004 0 0 0 0 4.004v23.992A3.998 3.998 0 0 0 3.997 32h20.006A4.004 4.004 0 0 0 28 27.996V9h-7V0z" stroke="#C3CAD2" fill="#FFF"/><path d="M18.696 15.838l-7.83-4.746A.583.583 0 0 0 10.56 11a.567.567 0 0 0-.557.573H10v9.854h.003c0 .315.25.573.557.573a.64.64 0 0 0 .315-.097l7.82-4.74a.87.87 0 0 0 0-1.323v-.002z" fill="#9BA0A9"/><path d="M21 0l7 9h-7V0z" fill="#C3CAD2"/></g></svg>