<svg width="64" xmlns="http://www.w3.org/2000/svg" height="64" viewBox="0 0 64 64"><g fill="currentColor"><path d="M32 0C14.355 0 0 14.355 0 32s14.355 32 32 32 32-14.355 32-32S49.645 0 32 0zm0 60C16.561 60 4 47.439 4 32S16.561 4 32 4s28 12.561 28 28-12.561 28-28 28z"/><path d="M43.639 24.572l-11.201 5.037-13.29-13.291a2 2 0 1 0-2.828 2.828l14.266 14.268c.029.029.068.039.098.066.143.125.297.227.465.307.061.029.117.061.182.082.212.078.435.131.665.131H32l.012-.002c.264-.002.525-.061.773-.166.012-.006.023-.002.035-.008l12.459-5.604a2 2 0 1 0-1.64-3.648z"/></g></svg>