<svg width="32" height="32" viewBox="0 0 32 32" xmlns="http://www.w3.org/2000/svg"><path d="M31.977 4H25.36l-.472.086v.67c0 .08.226.144.29.194.058.053.22.082.287.082l.6.03c.68.035.886.19 1.15.453.26.27.304.732.1 1.38L21.47 22.982l-.224-.07-3.714-8.805c.054-.133.086-.207.086-.207l3.04-6.587a30.11 30.11 0 0 1 .87-1.605c.318-.527.473-.627 1.338-.673.178 0 .245-.09.245-.277v-.666l-.043-.07s-3.635-.015-5.29 0v.734c0 .08-.042.146.017.195.062.053.09.08.156.08l.248.034c.677.033.98.238 1.07.367.163.23.238.476-.153 1.465l-2.342 5.404-2.116-5.013c-.693-1.602-.865-2.098.18-2.19l.282-.07c.2 0 .17-.083.17-.242v-.7l-.022-.058H9.624L9.6 4.1v.702c0 .158.148.2.422.242.98.148.962.267 1.93 2.49.145.334.572 1.338.572 1.338l2.206 5.018s.25.645.642 1.645l-3.206 7.406-.183-.053S7.008 10.737 5.57 6.674c-.152-.42-.218-.732-.218-.925 0-.414.322-.638.965-.668l.978-.037c.2 0 .527-.088.527-.272v-.667l-.294-.07s-6.095-.007-7.325 0L0 4.107v.702c0 .125.16.204.436.237.757.048 1.266.187 1.504.42.238.236.496.83.83 1.758 1.808 5.03 5.653 14.007 7.525 19.12.538 1.395 1.218 1.613 2.04-.043.845-1.817 2.55-5.85 3.795-8.826 1.165 2.97 2.75 6.986 3.515 8.806.61 1.457 1.304 1.6 2.008.044 1.842-4.742 7.225-19.012 7.225-19.012.232-.7.557-1.24.976-1.632.415-.387 1.034-.606 1.9-.65.177 0 .246-.092.246-.273v-.67L31.977 4z" fill-rule="evenodd"/></svg>