<svg width="22" height="21" viewBox="0 0 22 21" xmlns="http://www.w3.org/2000/svg"><g fill="none" fill-rule="evenodd" stroke="currentColor"><g transform="translate(11.833 11.833)" stroke-linejoin="round"><circle cx="3.75" cy="3.75" r="3.333"/><path d="M6.107 6.107L8.75 8.75"/></g><path d="M1.417 4.75h16.666"/><path d="M3.917 2.667a.417.417 0 1 0 0 .833.417.417 0 0 0 0-.833zm1.666 0a.417.417 0 1 0 0 .833.417.417 0 0 0 0-.833zm1.667 0a.417.417 0 1 0 0 .833.417.417 0 0 0 0-.833z" fill="#4D4D4D" fill-rule="nonzero"/><path d="M10.167 14.75H3.083c-.92 0-1.666-.747-1.666-1.667v-10c0-.92.746-1.666 1.666-1.666h13.334c.92 0 1.666.746 1.666 1.666v7.5"/></g></svg>