<svg width="16" height="12" viewBox="0 0 16 12" xmlns="http://www.w3.org/2000/svg">
<path d="M10.1818 6.00002C11.7891 6.00002 13.0909 4.74702 13.0909 3.20002C13.0909 1.65302 11.7891 0.400024 10.1818 0.400024C8.57456 0.400024 7.27274 1.65302 7.27274 3.20002C7.27274 4.74702 8.57456 6.00002 10.1818 6.00002ZM3.63639 4.60002V2.50002H2.18184V4.60002H3.05176e-05V6.00002H2.18184V8.10003H3.63639V6.00002H5.8182V4.60002H3.63639ZM10.1818 7.40002C8.24002 7.40002 4.36366 8.33803 4.36366 10.2V11.6H16V10.2C16 8.33803 12.1236 7.40002 10.1818 7.40002Z"/>
</svg>
