<svg width="16" height="11" viewBox="0 0 16 11" xmlns="http://www.w3.org/2000/svg">
<path d="M10.9091 4.56365C12.1164 4.56365 13.0836 3.5891 13.0836 2.38183C13.0836 1.17456 12.1164 0.200012 10.9091 0.200012C9.70182 0.200012 8.72727 1.17456 8.72727 2.38183C8.72727 3.5891 9.70182 4.56365 10.9091 4.56365ZM5.09091 4.56365C6.29818 4.56365 7.26545 3.5891 7.26545 2.38183C7.26545 1.17456 6.29818 0.200012 5.09091 0.200012C3.88364 0.200012 2.90909 1.17456 2.90909 2.38183C2.90909 3.5891 3.88364 4.56365 5.09091 4.56365ZM5.09091 6.01819C3.39636 6.01819 0 6.8691 0 8.56365V10.3818H10.1818V8.56365C10.1818 6.8691 6.78545 6.01819 5.09091 6.01819ZM10.9091 6.01819C10.6982 6.01819 10.4582 6.03274 10.2036 6.05456C11.0473 6.66547 11.6364 7.48728 11.6364 8.56365V10.3818H16V8.56365C16 6.8691 12.6036 6.01819 10.9091 6.01819Z"/>
</svg>
