<svg width="10" height="10" viewBox="0 0 10 10" fill="none" xmlns="http://www.w3.org/2000/svg"><path d="M5.00001 1.34001C5.69601 1.34001 6.26001 1.90401 6.26001 2.60001C6.26001 3.29601 5.69601 3.86001 5.00001 3.86001C4.30401 3.86001 3.74001 3.29601 3.74001 2.60001C3.74001 1.90401 4.30401 1.34001 5.00001 1.34001ZM5.00001 6.74001C6.78201 6.74001 8.66001 7.61601 8.66001 8.00001V8.66001H1.34001V8.00001C1.34001 7.61601 3.21801 6.74001 5.00001 6.74001ZM5.00001 0.200012C3.67401 0.200012 2.60001 1.27401 2.60001 2.60001C2.60001 3.92601 3.67401 5.00001 5.00001 5.00001C6.32601 5.00001 7.40001 3.92601 7.40001 2.60001C7.40001 1.27401 6.32601 0.200012 5.00001 0.200012ZM5.00001 5.60001C3.39801 5.60001 0.200012 6.40401 0.200012 8.00001V9.80001H9.80001V8.00001C9.80001 6.40401 6.60201 5.60001 5.00001 5.60001Z" fill="#737373"/></svg>
