<svg width="12" height="11" viewBox="0 0 12 11" fill="none" xmlns="http://www.w3.org/2000/svg">
<path d="M1.48281 10.8045H10.5188C11.4428 10.8045 12.0188 9.80248 11.5568 9.00448L7.03881 1.19848C6.57681 0.400476 5.42481 0.400476 4.96281 1.19848L0.444805 9.00448C-0.0171949 9.80248 0.558805 10.8045 1.48281 10.8045ZM6.00081 6.60448C5.67081 6.60448 5.40081 6.33448 5.40081 6.00448V4.80448C5.40081 4.47448 5.67081 4.20448 6.00081 4.20448C6.33081 4.20448 6.60081 4.47448 6.60081 4.80448V6.00448C6.60081 6.33448 6.33081 6.60448 6.00081 6.60448ZM6.60081 9.00448H5.40081V7.80448H6.60081V9.00448Z" fill="#B30F00"/>
</svg>
